<?xml version="1.0" standalone="no"?>
<!DOCTYPE svg PUBLIC "-//W3C//DTD SVG 1.1//EN" "http://www.w3.org/Graphics/SVG/1.1/DTD/svg11.dtd" >
<svg xmlns="http://www.w3.org/2000/svg" xmlns:xlink="http://www.w3.org/1999/xlink" version="1.1">
<metadata>
Created by FontForge 20170731 at Mon Mar 31 19:08:50 2014
 By Aleksey,,,
Copyright (c) 2006 Parachute :, www.parachute.gr.  All rights reserved.
</metadata>
<defs>
<font id="PFCentroSlabPro-Regular" horiz-adv-x="1142" >
  <font-face 
    font-family="PF Centro Slab Pro"
    font-weight="400"
    font-stretch="normal"
    units-per-em="2048"
    panose-1="2 0 5 0 0 0 0 2 0 4"
    ascent="1536"
    descent="-512"
    x-height="999"
    cap-height="1403"
    bbox="-55 -500 1970 1890"
    underline-thickness="102"
    underline-position="-306"
    unicode-range="U+000D-25FC"
  />
<missing-glyph horiz-adv-x="748" 
d="M68 0v1365h544v-1365h-544zM136 68h408v1229h-408v-1229z" />
    <glyph glyph-name=".notdef" horiz-adv-x="748" 
d="M68 0v1365h544v-1365h-544zM136 68h408v1229h-408v-1229z" />
    <glyph glyph-name="glyph1" horiz-adv-x="2048" 
 />
    <glyph glyph-name="glyph1" horiz-adv-x="2048" 
 />
    <glyph glyph-name="uni000D" unicode="&#xd;" horiz-adv-x="2048" 
 />
    <glyph glyph-name="space" unicode=" " horiz-adv-x="557" 
 />
    <glyph glyph-name="exclam" unicode="!" horiz-adv-x="460" 
d="M121 86q0 43 31.5 73.5t78.5 30.5q46 0 77.5 -30.5t31.5 -73.5q0 -44 -32.5 -76.5t-76.5 -32.5q-47 0 -78.5 32t-31.5 77zM150 1425h163l-4 -608l-18 -469h-113l-20 469z" />
    <glyph glyph-name="quotedbl" unicode="&#x22;" horiz-adv-x="557" 
d="M98 1403h152l-31 -416h-92zM317 1403h150l-27 -416h-94z" />
    <glyph glyph-name="numbersign" unicode="#" horiz-adv-x="1091" 
d="M94 399l19 97h155l76 344h-164l19 94h166l79 352h105l-78 -352h301l78 352h106l-77 -352h141l-19 -94h-145l-76 -344h154l-19 -97h-155l-86 -399h-107l86 399h-299l-88 -399h-106l88 399h-154zM375 496h301l74 344h-299z" />
    <glyph glyph-name="dollar" unicode="$" 
d="M143 106v263h123v-172q90 -43 187 -56v533q-69 24 -118.5 50t-93.5 64.5t-66.5 93.5t-22.5 126q0 144 81.5 234.5t219.5 117.5v137h75v-1651h-75v164q-179 16 -310 96zM295 1022q0 -85 40 -129t118 -76v414q-72 -20 -115 -71.5t-43 -137.5zM598 -154v1651h78v-131
q152 -11 254 -74v-260h-123v174q-60 26 -131 35v-493q54 -20 87 -34.5t78.5 -38.5t73 -49.5t54 -60.5t39 -80t12.5 -100q0 -159 -92.5 -251t-251.5 -118v-170h-78zM676 147q91 18 146 78t55 162q0 83 -52 133t-149 86v-459z" />
    <glyph glyph-name="percent" unicode="%" horiz-adv-x="1679" 
d="M41 946q0 61 8 116t30.5 113t59 99.5t99 68.5t143.5 27q326 0 326 -422q0 -62 -9.5 -118.5t-33.5 -111t-60.5 -94t-94.5 -63.5t-132 -24q-81 0 -142.5 23.5t-97.5 61t-58.5 92.5t-30 110t-7.5 122zM180 944q0 -55 4.5 -96.5t17.5 -82t34.5 -66.5t58 -42t86.5 -16
q186 0 186 305q0 36 -1.5 64.5t-7 68.5t-18.5 69.5t-32.5 57t-52 42t-74.5 14.5q-201 0 -201 -318zM483 -45l602 1481h111l-598 -1481h-115zM973 403q0 61 8 116t30.5 113t59 99.5t99 68.5t143.5 27q325 0 325 -421q0 -62 -9.5 -118.5t-33.5 -111t-60.5 -94.5t-94 -64
t-131.5 -24q-81 0 -142.5 23.5t-97.5 61t-58.5 92.5t-30 110t-7.5 122zM1112 401q0 -55 4.5 -96.5t17.5 -82t34.5 -66.5t58 -42t86.5 -16q186 0 186 305q0 36 -1.5 64.5t-7 68.5t-18.5 69.5t-32.5 57t-52 42t-74.5 14.5q-201 0 -201 -318z" />
    <glyph glyph-name="ampersand" unicode="&#x26;" horiz-adv-x="1486" 
d="M70 373q0 133 86 241.5t254 202.5q-113 149 -113 277q0 123 77 207.5t220 84.5q146 0 221.5 -79.5t75.5 -188.5q0 -107 -70 -184t-213 -162q96 -140 223 -295q82 -99 152 -174q185 177 217 408h-178v120h459v-120h-144q-28 -280 -260 -498q153 -147 305 -209l-63 -115
q-71 31 -173.5 99t-178.5 139q-100 -72 -217.5 -112t-231.5 -40q-128 0 -227.5 43.5t-160 135t-60.5 219.5zM221 381q0 -135 85 -209t214 -74q177 0 352 121q-68 70 -182 215q-146 186 -209 273q-123 -67 -191.5 -145t-68.5 -181zM446 1104q0 -85 97 -223q49 25 82.5 46.5
t65 50.5t47.5 64t16 76q0 68 -44 110t-120 42q-49 0 -83.5 -28.5t-47.5 -64.5t-13 -73z" />
    <glyph glyph-name="quotesingle" unicode="'" horiz-adv-x="395" 
d="M123 1403h153l-30 -416h-94z" />
    <glyph glyph-name="parenleft" unicode="(" horiz-adv-x="583" 
d="M123 584q0 129 23 254t55.5 216t77 177t78 135.5t69.5 93.5l72 -45q-31 -46 -62 -109t-70.5 -168t-64.5 -250t-25 -302q0 -522 224 -885l-74 -51q-35 45 -67.5 94t-78 139.5t-78 187t-56 233t-23.5 280.5z" />
    <glyph glyph-name="parenright" unicode=")" horiz-adv-x="587" 
d="M66 -299q223 361 223 885q0 127 -17.5 249.5t-42 210.5t-57.5 168t-57 123.5t-47 77.5l71 45q36 -44 69.5 -93.5t78 -135.5t77 -177t55.5 -216t23 -254q0 -144 -23.5 -280.5t-56 -233t-78 -187t-79 -140t-68.5 -93.5z" />
    <glyph glyph-name="asterisk" unicode="*" horiz-adv-x="796" 
d="M100 1135q9 96 54 163l206 -116q-7 38 -23.5 115.5t-23.5 115.5q36 10 90 10q50 0 84 -10l-47 -231q39 20 113 59.5t94 50.5q31 -35 41 -71t14 -91q-41 -4 -120.5 -14t-120.5 -14l172 -162q-52 -66 -133 -100l-103 217l-100 -215q-78 29 -137 98l172 164z" />
    <glyph glyph-name="plus" unicode="+" 
d="M182 553v119h336v332h123v-332h334v-119h-334v-344h-123v344h-336z" />
    <glyph glyph-name="comma" unicode="," horiz-adv-x="430" 
d="M88 -215q89 99 98 205q-88 5 -88 104q0 43 32 75t81 32q55 0 89 -36.5t34 -94.5q0 -88 -52 -178.5t-149 -155.5z" />
    <glyph glyph-name="hyphen" unicode="-" horiz-adv-x="749" 
d="M111 471v139h528v-139h-528z" />
    <glyph glyph-name="period" unicode="." horiz-adv-x="425" 
d="M96 96q0 46 33.5 79.5t79.5 33.5q49 0 83 -33.5t34 -79.5q0 -49 -34 -82.5t-79 -33.5q-50 0 -83.5 33.5t-33.5 82.5z" />
    <glyph glyph-name="slash" unicode="/" horiz-adv-x="681" 
d="M31 -57l524 1493h111l-525 -1493h-110z" />
    <glyph glyph-name="zero" unicode="0" 
d="M70 670q0 71 6 136.5t21.5 138t39.5 134t64 118.5t92 96.5t125.5 63t161.5 23.5q491 0 491 -706q0 -104 -14.5 -198.5t-50.5 -185.5t-91 -157t-141.5 -106.5t-195.5 -40.5q-89 0 -162 20.5t-125 55.5t-91.5 86.5t-64 109t-39.5 128.5t-20.5 138.5t-5.5 145.5zM238 666
q0 -99 8 -175t30 -149t59.5 -120.5t99 -76t145.5 -28.5q76 0 134.5 33t93.5 85t57 127t30 148.5t8 159.5q0 55 -1.5 99.5t-9 107t-20.5 110.5t-37 99t-57.5 84.5t-84 55t-113.5 21.5q-64 0 -115.5 -20.5t-86.5 -53t-61.5 -81.5t-41 -98t-23.5 -110t-11.5 -111t-2.5 -107z
" />
    <glyph glyph-name="one" unicode="1" 
d="M158 1241l358 119h152v-1233h280v-127h-741v127h297v1065l-324 -49z" />
    <glyph glyph-name="two" unicode="2" 
d="M78 1233q202 147 430 147q194 0 310 -95t116 -279q0 -69 -22.5 -142t-67.5 -145t-92 -134.5t-115.5 -133.5t-117 -118t-119 -112.5t-99.5 -93.5h549v184h141v-311h-907v117q26 25 95.5 88.5t111.5 102.5t110.5 107t112.5 117.5t96 116t82 120.5t51 114t21 112
q0 125 -75 185.5t-206 60.5q-167 0 -346 -111z" />
    <glyph glyph-name="three" unicode="3" 
d="M94 61q14 48 41 123q213 -61 336 -61q173 0 269 74.5t96 228.5q0 134 -98.5 202t-284.5 68q-56 0 -111 -8l-31 98q215 221 439 445h-467v-195q-23 0 -70 -1t-70 -1v326h801l27 -98l-443 -443q100 0 183 -21t151 -65t106 -122t38 -183q0 -109 -41.5 -196t-112 -140.5
t-159.5 -81.5t-189 -28q-239 0 -410 79z" />
    <glyph glyph-name="four" unicode="4" 
d="M66 385v117q110 148 337 434t330 424h146v-852h198v-123h-198v-258h147v-127h-451v127h146v258h-655zM221 508h502v618h-12q-82 -108 -245 -309t-245 -309z" />
    <glyph glyph-name="five" unicode="5" 
d="M100 63l39 123q206 -61 340 -61q173 0 269 74.5t96 230.5q0 142 -94.5 218.5t-235.5 76.5q-117 0 -233 -55l-99 65l41 625h727v-289h-137v162h-453l-26 -420q107 41 229 41q87 0 165 -24.5t142.5 -74t103 -133t38.5 -192.5q0 -110 -40.5 -197.5t-110 -141t-156.5 -81.5
t-185 -28q-251 0 -420 81z" />
    <glyph glyph-name="six" unicode="6" 
d="M106 621q0 168 33 305.5t98 239.5t169.5 158t240.5 56q96 0 174 -19.5t123 -43.5q-30 -98 -37 -117q-126 49 -256 49q-86 0 -154.5 -37t-108.5 -91.5t-67 -125.5t-37.5 -128t-13.5 -111l11 -6q89 48 169.5 74t176.5 26q83 0 155 -24.5t130.5 -73t92 -132t33.5 -192.5
q0 -204 -126.5 -323t-333.5 -119q-108 0 -191 33t-135.5 89.5t-86 139t-46.5 173t-13 200.5zM272 573q0 -42 2.5 -80.5t11 -86t21.5 -87t37 -78.5t55.5 -66t78.5 -43.5t104 -16.5q142 0 218.5 84t76.5 221q0 301 -281 301q-41 0 -81 -5.5t-71 -14.5t-58 -20t-47.5 -22
t-34 -20t-22.5 -16t-10 -7v-43z" />
    <glyph glyph-name="seven" unicode="7" 
d="M160 1026v334h829v-121l-559 -1239h-158l555 1233h-526v-207h-141z" />
    <glyph glyph-name="eight" unicode="8" 
d="M98 338q0 55 12.5 109.5t40.5 111.5t79 109t120 90q-100 59 -144 122t-44 160q0 147 119.5 245.5t304.5 98.5q59 0 116 -11.5t111 -37t94.5 -63t65 -94t24.5 -125.5q0 -87 -43 -170t-159 -168q105 -55 172 -144.5t67 -210.5q0 -163 -129.5 -269.5t-343.5 -106.5
q-220 0 -341.5 97t-121.5 257zM266 358q0 -108 78 -178.5t223 -70.5q143 0 225 73t82 189q0 26 -6.5 49.5t-15 43t-28.5 39.5t-35.5 34.5t-48 33.5t-54 30.5t-65.5 31.5t-70 31t-80 34q-111 -69 -158 -159t-47 -181zM332 1040q0 -22 4.5 -42t16 -38t21.5 -31.5t32.5 -29
t36.5 -25.5t45.5 -25.5t48 -23.5t55.5 -25.5t57 -25.5q103 70 147 130.5t44 125.5q0 37 -15 74.5t-44 71t-81.5 54.5t-119.5 21q-65 0 -115.5 -22t-78 -56t-41 -68.5t-13.5 -64.5z" />
    <glyph glyph-name="nine" unicode="9" 
d="M88 936q0 205 127 324.5t334 119.5q108 0 190.5 -33t135 -89.5t85.5 -139.5t46.5 -174t13.5 -201q0 -133 -20.5 -247.5t-64 -208.5t-106.5 -160t-152 -102.5t-198 -36.5q-99 0 -187 19.5t-130 41.5l39 117q126 -49 274 -49q86 0 154 37.5t108 91.5t67.5 125.5t38 128.5
t13.5 110l-10 6q-173 -102 -346 -102q-85 0 -157.5 24t-130.5 73.5t-91 132.5t-33 192zM250 944q0 -301 280 -301q41 0 81 5.5t71 14.5t58 20t47.5 22t34 20t22.5 16t10 7v45q0 41 -2.5 78t-10.5 84t-21.5 86t-37 77.5t-55 65t-78.5 43t-104 16.5q-142 0 -218.5 -81.5
t-76.5 -217.5z" />
    <glyph glyph-name="colon" unicode=":" horiz-adv-x="419" 
d="M96 96q0 46 33.5 79.5t79.5 33.5q49 0 83 -33.5t34 -79.5q0 -49 -34 -82.5t-79 -33.5q-50 0 -83.5 33.5t-33.5 82.5zM96 733q0 46 33.5 79.5t79.5 33.5q49 0 83 -33.5t34 -79.5q0 -49 -34 -83t-79 -34q-49 0 -83 34t-34 83z" />
    <glyph glyph-name="semicolon" unicode=";" horiz-adv-x="419" 
d="M88 -215q89 99 98 205q-88 5 -88 104q0 43 32 75t81 32q55 0 89 -36.5t34 -94.5q0 -88 -52 -178.5t-149 -155.5zM96 733q0 46 33.5 79.5t79.5 33.5q49 0 83 -33.5t34 -79.5q0 -49 -34 -83t-79 -34q-49 0 -83 34t-34 83z" />
    <glyph glyph-name="less" unicode="&#x3c;" 
d="M172 557v102l815 410v-139l-665 -320l665 -327v-138z" />
    <glyph glyph-name="equal" unicode="=" 
d="M158 410v116h825v-116h-825zM158 707v118h825v-118h-825z" />
    <glyph glyph-name="greater" unicode="&#x3e;" 
d="M172 145v138l666 327l-666 320v139l815 -410v-102z" />
    <glyph glyph-name="question" unicode="?" horiz-adv-x="903" 
d="M84 1083v293q189 66 373 66q185 0 283 -70t106 -198q0 -99 -46 -176t-132 -148q-144 -117 -203 -190t-59 -156q0 -20 2.5 -41.5t8 -55.5t7.5 -51l-135 -18q-25 111 -25 186q0 56 16.5 104.5t54.5 99t79 92t112 104.5q76 63 110 111.5t34 111.5q0 81 -61 119.5t-163 38.5
q-118 0 -227 -35v-187h-135zM283 84q0 43 31 73.5t75 30.5q46 0 77.5 -30.5t31.5 -73.5q0 -44 -32 -74t-75 -30q-44 0 -76 30.5t-32 73.5z" />
    <glyph glyph-name="at" unicode="@" horiz-adv-x="1798" 
d="M150 682q0 155 62.5 291.5t168 232t250 150.5t303.5 55q218 0 379.5 -84t246.5 -235t85 -351q-1 -99 -32 -179.5t-81.5 -130.5t-112.5 -76.5t-129 -26.5q-73 0 -134 28.5t-85 89.5q-48 -48 -122 -80t-152 -32q-62 0 -107.5 21.5t-67.5 56.5t-32 69t-10 70q0 94 63 151.5
t176 69.5l230 19v51q0 94 -33.5 130t-122.5 36q-106 0 -231 -41l-29 88q135 61 289 61q120 0 183.5 -58.5t63.5 -191.5v-315q0 -60 35.5 -93.5t104.5 -33.5q90 0 160.5 80.5t70.5 232.5q0 270 -164 425t-442 155q-184 0 -340.5 -82.5t-249 -228t-92.5 -320.5
q0 -180 82 -325.5t225.5 -227.5t319.5 -82q132 0 251 41l29 -84q-122 -51 -276 -51q-215 0 -382.5 93.5t-259 258.5t-91.5 373zM713 563q0 -131 137 -131q98 0 199 88v189l-187 -17q-66 -6 -107.5 -40t-41.5 -89z" />
    <glyph glyph-name="A" unicode="A" horiz-adv-x="1368" 
d="M41 0v129h117q398 1200 422 1274h217q71 -219 213.5 -653t203.5 -621h115v-129h-434v129h141l-82 258h-546q-51 -162 -80 -258h145v-129h-432zM453 518h460q-33 111 -98 315.5t-88 280.5q-5 20 -12 42.5t-15.5 50.5t-13.5 44h-4q-6 -28 -43 -139q-131 -406 -186 -594z
" />
    <glyph glyph-name="B" unicode="B" horiz-adv-x="1267" 
d="M82 0v129h141v1141h-133v131h615q214 0 325 -95.5t111 -263.5q0 -38 -7.5 -75t-26.5 -82t-60.5 -85t-100.5 -67q124 -37 181 -132.5t57 -215.5q0 -170 -117 -277.5t-283 -107.5h-702zM397 129h328q144 0 213.5 75t69.5 191q0 112 -74 189.5t-209 77.5h-328v-533zM397 793
h293q131 0 204 63.5t73 171.5q0 111 -68.5 176.5t-208.5 65.5h-293v-477z" />
    <glyph glyph-name="C" unicode="C" horiz-adv-x="1167" 
d="M102 694q0 68 8 135t28 140.5t50.5 138t79.5 123.5t111 101.5t148.5 67.5t189.5 25q202 0 356 -57v-328h-131v217q-97 27 -219 27q-150 0 -250 -75t-145 -205t-45 -312q0 -103 12 -183.5t42.5 -154t81 -121.5t130.5 -76t188 -28q68 0 163.5 11.5t170.5 35.5l33 -127
q-72 -29 -185 -47t-212 -18q-605 0 -605 710z" />
    <glyph glyph-name="D" unicode="D" horiz-adv-x="1359" 
d="M84 0v129h141v1139h-133v135h590q133 0 234.5 -37t165 -100t104 -154t56 -189.5t15.5 -217.5q0 -120 -17 -221t-59.5 -192.5t-109 -154.5t-170 -100t-237.5 -37h-580zM403 129h240q35 0 64.5 2.5t77 15t84.5 33.5t78 63t68.5 99.5t45.5 147t18 200.5q0 113 -16.5 204.5
t-41.5 150.5t-63.5 102.5t-74 66t-81.5 35.5t-77 16t-70 3h-252v-1139z" />
    <glyph glyph-name="E" unicode="E" horiz-adv-x="1177" 
d="M84 0v131h137v1139h-131v131h997v-332h-133v201h-559v-475l533 10v-137l-533 8v-545h588v205h137v-336h-1036z" />
    <glyph glyph-name="F" unicode="F" horiz-adv-x="1130" 
d="M84 0v129h137v1141h-131v131h1000v-332h-136v201h-559v-475l533 10v-137l-533 8v-547h197v-129h-508z" />
    <glyph glyph-name="G" unicode="G" horiz-adv-x="1296" 
d="M102 694q0 68 8 135t28 140.5t51.5 138t82.5 124t116 101.5t156.5 67t200.5 25q211 0 365 -57v-324h-131v209q-103 29 -227 29q-237 0 -353 -156.5t-116 -433.5q0 -100 11.5 -180t41.5 -153.5t78.5 -122.5t125 -78t177.5 -29q150 0 248 31v442h-217v131h483v-131h-105
v-553q-198 -65 -424 -65q-600 0 -600 710z" />
    <glyph glyph-name="H" unicode="H" horiz-adv-x="1439" 
d="M82 0v129h133v1141h-133v131h436v-131h-129v-471h658v471h-127v131h436v-131h-133v-1141h133v-129h-436v129h127v543h-658v-543h129v-129h-436z" />
    <glyph glyph-name="I" unicode="I" horiz-adv-x="722" 
d="M143 0v129h129v1141h-129v133h437v-133h-134v-1141h134v-129h-437z" />
    <glyph glyph-name="J" unicode="J" horiz-adv-x="735" 
d="M-55 -242q110 60 177.5 113t107 115.5t53.5 129t14 163.5v991h-172v133h504v-133h-156l-2 -996q0 -254 -117.5 -403t-357.5 -231z" />
    <glyph glyph-name="K" unicode="K" horiz-adv-x="1320" 
d="M84 0v127h131v1149h-131v125h432v-125h-129v-535l551 533h-135v127h440v-127h-115l-444 -424l483 -721h121v-129h-452l-2 129h135l-410 610l-172 -166v-446h131v-127h-434z" />
    <glyph glyph-name="L" unicode="L" horiz-adv-x="1150" 
d="M84 0v129h137v1141h-131v131h455v-131h-150v-1141h604v246h138v-375h-1053z" />
    <glyph glyph-name="M" unicode="M" horiz-adv-x="1781" 
d="M59 0v129h131v1141h-131v131h361q39 -84 342 -772q26 -59 68.5 -160t56.5 -133h10q16 37 50.5 121.5t53.5 126.5l359 817h352v-131h-127v-1141h127v-129h-432v129h127v1004h-4l-90 -211q-60 -139 -144 -326q-73 -161 -192 -438h-178q-222 489 -348 778q-78 178 -86 197
h-7l-2 -1004h133v-129h-430z" />
    <glyph glyph-name="N" unicode="N" horiz-adv-x="1507" 
d="M80 129h139l2 1141h-139v131h324q154 -242 280 -439.5t180 -282t92 -144.5q90 -138 156 -248h10v983h-143v131h442v-131h-135v-1270h-166q-76 118 -281 432.5t-317 489.5l-135 215q-1 0 -3 -1t-3 -1v-1006h141l2 -129h-444z" />
    <glyph glyph-name="O" unicode="O" horiz-adv-x="1388" 
d="M102 690q0 121 19.5 226t65 199.5t114 162t171.5 106.5t233 39q131 0 233 -39.5t166.5 -106t106.5 -161.5t58.5 -197.5t16.5 -222.5q0 -154 -37 -283t-108.5 -225t-183 -150t-252.5 -54q-603 0 -603 706zM283 688q0 -285 101 -425t321 -140q133 0 225 77t134 202t42 288
q0 594 -401 594q-422 0 -422 -596z" />
    <glyph glyph-name="P" unicode="P" horiz-adv-x="1169" 
d="M84 0v129h131v1141h-131v133h590q198 0 317 -106t119 -302q0 -55 -12 -109.5t-42 -111.5t-76 -100.5t-120 -71t-166 -27.5h-305v-446h176v-129h-481zM389 707h273q53 0 98.5 14t85.5 44.5t63 87.5t23 136q0 141 -73 211t-204 70h-266v-563z" />
    <glyph glyph-name="Q" unicode="Q" horiz-adv-x="1388" 
d="M102 690q0 121 19.5 226t64.5 199.5t112.5 162t171 106.5t232.5 39q131 0 233 -40t167 -106.5t106.5 -162t58.5 -198t17 -222.5q0 -231 -82 -402.5t-237 -248.5l321 -78l-61 -151q-300 96 -477 155l-46 8q-317 20 -458.5 196t-141.5 517zM281 686q0 -284 101 -423.5
t320 -139.5q134 0 226 76.5t134 201.5t42 289q0 596 -402 596q-421 0 -421 -600z" />
    <glyph glyph-name="R" unicode="R" horiz-adv-x="1265" 
d="M86 0v131h129v1139h-129v133h598q199 0 315.5 -98t116.5 -289q0 -54 -13 -107.5t-41.5 -107.5t-82 -97t-125.5 -63l233 -514l148 -21v-96q-76 -28 -164 -28q-59 0 -89 25.5t-56 82.5l-234 526h-303v-485h164v-131h-467zM389 743h281q37 0 71.5 6.5t71.5 24.5t63.5 46.5
t44 78t17.5 113.5q0 69 -22 120t-61 80.5t-85.5 43.5t-101.5 14h-279v-527z" />
    <glyph glyph-name="S" unicode="S" horiz-adv-x="1118" 
d="M72 365h131l2 -172q133 -68 311 -68q165 0 254.5 71t89.5 187q0 37 -8 67t-20.5 52t-36.5 41t-45 31.5t-59 26t-65.5 22t-75.5 21.5q-7 2 -11 3q-60 17 -100.5 29.5t-91.5 32t-84.5 39t-68.5 48t-55.5 60.5t-33.5 75t-13 93q0 185 133.5 291t333.5 106q245 0 387 -84
l4 -274h-133l-4 178q-85 39 -256 39q-126 0 -206.5 -58.5t-80.5 -174.5q0 -41 17 -75t44.5 -58.5t71 -46t86.5 -35.5t101 -29q44 -11 73 -19t71 -22t70 -26.5t63 -32t58.5 -40.5t47.5 -50t37.5 -61.5t22.5 -74.5t9 -90q0 -105 -39 -183.5t-109.5 -126t-162 -70.5t-203.5 -23
q-274 0 -454 104z" />
    <glyph glyph-name="T" unicode="T" horiz-adv-x="1134" 
d="M29 1053v350h1079v-350h-133v217h-320v-1141h170v-129h-510v129h168v1141h-321v-217h-133z" />
    <glyph glyph-name="U" unicode="U" horiz-adv-x="1445" 
d="M63 1270v133h439v-133h-144v-758q0 -190 94 -287.5t269 -97.5q177 0 270.5 97t93.5 288v758h-141v133h438v-133h-127v-766q0 -242 -135 -381t-399 -139q-535 0 -535 520v766h-123z" />
    <glyph glyph-name="V" unicode="V" horiz-adv-x="1308" 
d="M18 1268v133h431l-3 -133h-122q144 -471 264 -852q13 -42 36 -124t35 -120h9l71 250q46 149 131.5 434t124.5 412h-121v133h420v-133h-127q-34 -106 -180 -565t-225 -703h-209l-410 1268h-125z" />
    <glyph glyph-name="W" unicode="W" horiz-adv-x="1910" 
d="M18 1268v135h445v-135h-139l202 -838l56 -244h4l65 246l226 776l-21 60h-141l-2 135h465l2 -135h-146l256 -854l62 -219h4l55 243l191 830h-136v135h435v-135h-129q-42 -172 -158.5 -630.5t-159.5 -637.5h-205l-225 768l-59 205h-4l-62 -213l-223 -760h-209l-324 1268
h-125z" />
    <glyph glyph-name="X" unicode="X" horiz-adv-x="1304" 
d="M37 131h131l379 592l-332 545h-141l2 135h452v-135h-125l259 -428l268 428h-131v135h440v-135h-133l-352 -541l370 -596h136l2 -131h-469v131h139l-291 475l-297 -475h145v-131h-450z" />
    <glyph glyph-name="Y" unicode="Y" horiz-adv-x="1202" 
d="M23 1268v135h417v-135h-121l279 -525h8l287 525h-123v135h412v-135h-117l-381 -658v-481h166v-129h-506v129h166v475l-371 664h-116z" />
    <glyph glyph-name="Z" unicode="Z" horiz-adv-x="1089" 
d="M45 0v129l762 1141h-578v-205h-135v338h916v-131l-764 -1141h669v229h136v-360h-1006z" />
    <glyph glyph-name="bracketleft" unicode="[" horiz-adv-x="532" 
d="M111 -328v1755h350v-110h-199v-1532h199v-113h-350z" />
    <glyph glyph-name="backslash" unicode="\" horiz-adv-x="681" 
d="M31 1436h108l527 -1493h-113z" />
    <glyph glyph-name="bracketright" unicode="]" horiz-adv-x="532" 
d="M68 -215h198v1532h-198v110h348v-1755h-348v113z" />
    <glyph glyph-name="asciicircum" unicode="^" horiz-adv-x="907" 
d="M43 780l358 615h99l352 -615h-127l-276 486l-279 -486h-127z" />
    <glyph glyph-name="underscore" unicode="_" horiz-adv-x="1024" 
d="M0 -174h1024v-96h-1024v96z" />
    <glyph glyph-name="grave" unicode="`" horiz-adv-x="997" 
d="M270 1380l115 107l252 -332l-70 -59z" />
    <glyph glyph-name="a" unicode="a" horiz-adv-x="1054" 
d="M70 270q0 131 94.5 209t279.5 90l254 17v65q0 130 -45.5 179t-167.5 49q-147 0 -307 -56q-27 83 -35 113q177 80 381 80q165 0 249.5 -77t84.5 -255v-556h158l10 -97q-34 -18 -95.5 -29.5t-103.5 -11.5q-63 0 -93.5 25t-31.5 98q-1 0 -2 1t-2 1q-53 -46 -106 -75
t-101 -40t-73 -13.5t-60 -2.5q-66 0 -118 19t-83.5 48.5t-51.5 68.5t-27.5 75.5t-7.5 74.5zM246 287q0 -88 43.5 -128t140.5 -40q63 0 136 32.5t130 86.5v239l-250 -16q-95 -6 -147.5 -53t-52.5 -121z" />
    <glyph glyph-name="b" unicode="b" horiz-adv-x="1105" 
d="M-4 1327v129h330v-524q163 92 299 92q108 0 184.5 -39t119 -112.5t61 -165t18.5 -211.5q0 -87 -13 -160.5t-44.5 -139.5t-80 -111.5t-124 -72t-171.5 -26.5q-223 0 -417 90v1251h-162zM326 166q107 -47 239 -47q134 0 202.5 85t68.5 288q0 116 -17 195t-50.5 121
t-74 59.5t-96.5 17.5q-127 0 -272 -84v-635z" />
    <glyph glyph-name="c" unicode="c" horiz-adv-x="927" 
d="M82 487q0 71 10.5 138t41.5 141.5t79 129t131 90.5t191 36q170 0 294 -53v-264h-127v157q-68 19 -135 19q-158 0 -236.5 -101.5t-78.5 -290.5q0 -179 67 -273.5t216 -94.5q142 0 294 61l41 -116q-66 -37 -158.5 -59.5t-189.5 -22.5q-440 0 -440 503z" />
    <glyph glyph-name="d" unicode="d" horiz-adv-x="1114" 
d="M82 481q0 119 22 215t68.5 171t126.5 116t188 41q152 0 277 -68v371h-168v129h336v-1329h155v-127h-315v92l-4 2q-62 -48 -145.5 -79t-161.5 -31q-104 0 -179.5 39t-118 109.5t-62 156.5t-19.5 192zM254 481q0 -196 64.5 -278t183.5 -82q68 0 145 32t117 70v590
q-37 27 -112 50.5t-140 23.5q-258 0 -258 -406z" />
    <glyph glyph-name="e" unicode="e" horiz-adv-x="993" 
d="M82 498q0 42 4.5 85.5t17.5 96t33.5 99.5t54.5 92.5t78.5 78t108.5 52.5t141 20q63 0 115.5 -12.5t90.5 -33t69 -51t50.5 -61.5t34 -70t21.5 -70t11 -69.5t5 -60.5t1 -49v-90h-664v-9q0 -331 281 -331q85 0 156 16t159 53l45 -108q-174 -92 -373 -92q-103 0 -182 28.5
t-127 75.5t-78 115t-41.5 139t-11.5 156zM258 582h498q-2 70 -14 123t-38 96.5t-73 66.5t-113 23q-64 0 -113 -25t-79.5 -68.5t-47 -97.5t-20.5 -118z" />
    <glyph glyph-name="f" unicode="f" horiz-adv-x="722" 
d="M51 0v127h144v741h-140v99l142 37v163q0 150 82.5 229t238.5 79q112 0 209 -25l-22 -123q-89 14 -150 14q-100 0 -148.5 -40t-48.5 -134v-168h293v-131h-293v-741h172v-127h-479z" />
    <glyph glyph-name="g" unicode="g" horiz-adv-x="1048" 
d="M59 -154q0 81 40 145t91 91q-122 24 -122 154q0 136 170 167q-61 29 -101.5 93.5t-40.5 167.5q0 93 35 165t94 113t128 61.5t145 20.5q90 0 188 -25h324v-106h-160l-4 -4q35 -36 54.5 -95.5t19.5 -123.5q0 -158 -116.5 -250t-303.5 -92h-111q-83 0 -121.5 -15.5
t-38.5 -58.5q0 -33 28.5 -51.5t76.5 -18.5h258q184 0 283.5 -77.5t99.5 -223.5q0 -147 -130 -236t-360 -89q-119 0 -205 23t-132.5 64.5t-67.5 90.5t-21 110zM225 -119q0 -186 285 -186q144 0 218.5 50t74.5 136q0 74 -55.5 126t-180.5 52h-223q-43 -14 -81 -68.5
t-38 -109.5zM268 670q0 -99 57.5 -157t159.5 -58q118 0 191.5 56.5t73.5 160.5q0 35 -12.5 70.5t-38.5 70t-76 56.5t-117 22q-114 0 -176 -59t-62 -162z" />
    <glyph glyph-name="h" unicode="h" horiz-adv-x="1193" 
d="M41 1327v129h315v-547q85 53 179.5 83t171.5 30q76 0 131.5 -19t85 -47t47 -71.5t22 -79.5t4.5 -84l2 -594h158v-100q-35 -17 -89.5 -27t-94.5 -10q-77 0 -108 36.5t-31 114.5v527q0 46 -3 76t-13 58.5t-29 44t-51 25t-79 9.5q-65 0 -148.5 -30t-154.5 -71v-780h-166
v1327h-149z" />
    <glyph glyph-name="i" unicode="i" horiz-adv-x="598" 
d="M115 868v129h270v-870h150v-100q-36 -18 -86.5 -28.5t-88.5 -10.5q-73 0 -106.5 31t-34.5 112v737h-104zM186 1262q0 46 32 78t77 32q46 0 78.5 -32t32.5 -78q0 -43 -33 -76t-78 -33q-44 0 -76.5 33t-32.5 76z" />
    <glyph glyph-name="j" unicode="j" horiz-adv-x="571" 
d="M-39 -356q65 39 110 75t73 70.5t44 75.5t21.5 80.5t5.5 93.5v829h-141v129h307v-940q0 -209 -78.5 -324.5t-284.5 -199.5zM182 1262q0 46 32 78t77 32t77.5 -32.5t32.5 -77.5q0 -43 -33 -76t-77 -33t-76.5 33t-32.5 76z" />
    <glyph glyph-name="k" unicode="k" horiz-adv-x="1079" 
d="M31 1335v119h327v-897l353 322h-117v120h403v-120h-104q-26 -24 -125.5 -115.5t-153.5 -140.5q233 -373 312 -502l135 -19v-90q-65 -26 -146 -26q-86 0 -122 59l-293 483l-142 -127v-282h138v-119h-447v119h144v1216h-162z" />
    <glyph glyph-name="l" unicode="l" horiz-adv-x="610" 
d="M74 1327v129h327v-1329h146v-127h-455v127h144v1200h-162z" />
    <glyph glyph-name="m" unicode="m" horiz-adv-x="1800" 
d="M39 868v131h317v-86l9 -6q171 111 337 111q167 0 240 -121q74 53 175 88t186 35q81 0 139 -21.5t89 -52.5t49 -80t22 -88t4 -92v-559h145v-100q-78 -37 -172 -37q-80 0 -109.5 32.5t-29.5 106.5v520q0 113 -36.5 167t-139.5 54q-66 0 -151 -24.5t-144 -61.5
q12 -43 12 -129v-655h-166v682q0 100 -46 144t-120 44q-135 0 -291 -96v-774h-165v868h-154z" />
    <glyph glyph-name="n" unicode="n" horiz-adv-x="1198" 
d="M41 868v131h315v-90q85 53 179.5 83t171.5 30q76 0 131.5 -19t85 -47t47 -71.5t22 -79.5t4.5 -84l2 -594h154v-100q-35 -17 -87.5 -27t-92.5 -10q-77 0 -108 36.5t-31 114.5v518q0 46 -3 76t-13 58.5t-29 44t-51 25t-79 9.5q-66 0 -149.5 -29.5t-153.5 -70.5v-772h-166
v868h-149z" />
    <glyph glyph-name="o" unicode="o" horiz-adv-x="1046" 
d="M82 494q0 82 15 157t49 143t85 117.5t127.5 79t171.5 29.5q97 0 173 -29.5t124.5 -78.5t80 -117.5t44.5 -141t13 -155.5q0 -102 -22.5 -189t-72.5 -162.5t-141.5 -119t-216.5 -43.5q-118 0 -204 41t-134 114t-70 160.5t-22 194.5zM256 494q0 -66 5.5 -116.5t23 -101.5
t47 -84t79 -54t117.5 -21q63 0 111 22.5t76.5 58t46.5 86.5t24.5 101.5t6.5 108.5q0 74 -10.5 136.5t-36.5 123.5t-79 96t-130 35q-65 0 -115.5 -23t-81 -59.5t-50 -89t-27 -105.5t-7.5 -114z" />
    <glyph glyph-name="p" unicode="p" horiz-adv-x="1103" 
d="M27 -299h155v1167h-155v129h313v-94l4 -2q62 49 146.5 80t162.5 31q104 0 179.5 -39t118 -109.5t62 -156t19.5 -191.5q0 -119 -22 -214t-68.5 -168.5t-126.5 -113.5t-188 -40q-154 0 -277 67v-346h168v-129h-491v129zM350 195q37 -27 112 -50.5t140 -23.5q44 0 80.5 10.5
t70 37.5t56.5 70.5t37 114t14 162.5q0 195 -63.5 271.5t-184.5 76.5q-68 0 -145 -32t-117 -70v-567z" />
    <glyph glyph-name="q" unicode="q" horiz-adv-x="1103" 
d="M100 492q2 112 26 202t73.5 164t137.5 115t208 41q211 0 403 -86v-1227h160v-129h-502v129h176v367q-161 -91 -299 -91q-383 0 -383 497v18zM272 496v-23q0 -94 14 -161q17 -75 51 -114t75.5 -55t97.5 -16q127 0 272 82v620q-104 43 -231 43q-132 0 -204 -88t-75 -288z
" />
    <glyph glyph-name="r" unicode="r" horiz-adv-x="786" 
d="M63 0v127h146v741h-143v131h307v-139h4q73 62 173.5 113t184.5 51q26 0 38.5 -13t12.5 -44q0 -37 -15 -85t-40 -77l-354 -19v-659h158v-127h-472z" />
    <glyph glyph-name="s" unicode="s" horiz-adv-x="894" 
d="M59 297h129l7 -135q86 -45 213 -45q243 0 243 151q0 39 -16 68t-50 49t-65 32t-84 27q-5 1 -15 4q-154 44 -216 79q-125 72 -125 210q0 144 102 213.5t267 69.5q184 0 303 -74l6 -233h-133l-4 141q-76 31 -166 31q-93 0 -149 -35.5t-56 -110.5q0 -21 9 -39.5t30 -33.5
t36 -24.5t48 -21t44 -15t44 -13.5q140 -41 188 -64q138 -65 163 -190q7 -33 7 -70q0 -95 -53.5 -160.5t-141 -94.5t-204.5 -29q-232 0 -357 77z" />
    <glyph glyph-name="t" unicode="t" horiz-adv-x="755" 
d="M39 868v99l151 47l54 221l106 18v-254h301v-131h-303v-573q0 -41 4.5 -67t18 -50t41.5 -35.5t73 -11.5q86 0 191 31l31 -117q-116 -55 -254 -55q-142 0 -205.5 60.5t-63.5 185.5v632h-145z" />
    <glyph glyph-name="u" unicode="u" horiz-adv-x="1177" 
d="M43 868v131h315v-661q0 -56 5 -90t20.5 -65.5t48 -45.5t84.5 -14q66 0 148.5 30.5t152.5 94.5v620h-137v131h305v-872h145v-100q-84 -37 -176 -37q-67 0 -98 27t-37 100q-85 -78 -174.5 -109t-163.5 -31q-76 0 -131 19.5t-84.5 48.5t-46.5 74.5t-21.5 83.5t-4.5 90v575
h-150z" />
    <glyph glyph-name="v" unicode="v" horiz-adv-x="1060" 
d="M25 868v131h241l142 -442l124 -416h9q19 64 56.5 186.5t53.5 176.5q54 161 117 364h-94v131h360v-131h-100q-62 -182 -303 -868h-201l-293 868h-112z" />
    <glyph glyph-name="w" unicode="w" horiz-adv-x="1650" 
d="M14 868v131h240l154 -546l88 -322h10l94 285l131 385l-24 67h-142v131h447v-131h-119l162 -452l100 -285h8l76 295l123 442h-131v131h391v-131h-100l-250 -868h-217l-127 344l-97 285h-10l-98 -285l-123 -344h-225l-250 868h-111z" />
    <glyph glyph-name="x" unicode="x" horiz-adv-x="1003" 
d="M14 0v127h103l276 401l-205 340h-151v131h252l213 -370l153 239h-82l2 131h377v-131h-114l-238 -342l250 -399h139v-127h-405v127h75l-172 293l-182 -293h90v-127h-381z" />
    <glyph glyph-name="y" unicode="y" horiz-adv-x="1091" 
d="M37 868v131h225l207 -669l61 -217h11q2 6 13.5 42.5t32 99.5t38.5 118l163 495h-126v131h382v-131h-102l-375 -1118q-37 -106 -97.5 -147t-170.5 -41q-96 0 -209 35l29 147q121 -23 166 -23q61 0 93 18.5t54 80.5l68 186h-86l-275 862h-102z" />
    <glyph glyph-name="z" unicode="z" horiz-adv-x="915" 
d="M47 0v117l590 751h-418v-161h-127v292h752v-116l-590 -756h475v158h131v-285h-813z" />
    <glyph glyph-name="braceleft" unicode="{" horiz-adv-x="542" 
d="M59 557v92q69 13 102.5 72.5t33.5 144.5v232v10q0 36 0.5 56.5t3.5 60t9.5 64t20 56t32 49.5t48 31t66.5 13h121v-111h-47q-103 0 -103 -135v-332q0 -217 -123 -254q36 -20 59.5 -44t36 -47t19 -64t7.5 -71t1 -91v-391q0 -64 19.5 -99t74.5 -35h56v-110h-107q-32 0 -58 6
t-45 14.5t-34 25t-24.5 29.5t-16 36.5t-9.5 38t-5 41.5t-2 40v40v14v403q0 189 -136 215z" />
    <glyph glyph-name="bar" unicode="|" horiz-adv-x="497" 
d="M182 -285v1719h119v-1719h-119z" />
    <glyph glyph-name="braceright" unicode="}" horiz-adv-x="542" 
d="M49 -236h53q57 0 77 35t20 99v401q0 57 1 87.5t7.5 69t19 61t35 46t57.5 43.5q-120 36 -120 244v342q0 135 -103 135h-47v111h119q49 0 84 -17t53.5 -41.5t29 -63.5t13 -69.5t2.5 -72.5v-297q0 -204 133 -228v-92q-68 -10 -100.5 -70t-32.5 -145v-444q0 -37 -4.5 -69
t-17 -65t-32.5 -56.5t-53 -38.5t-75 -15h-119v110z" />
    <glyph glyph-name="asciitilde" unicode="~" 
d="M154 563q36 81 97 127.5t136 46.5q66 0 220 -48t206 -48l139 98l68 -55q-33 -81 -94 -129.5t-138 -48.5q-69 0 -149 24t-150 48t-116 24l-150 -96z" />
    <glyph glyph-name="uni00A0" unicode="&#xa0;" horiz-adv-x="557" 
 />
    <glyph glyph-name="cent" unicode="&#xa2;" 
d="M176 487q0 67 9.5 130.5t36.5 134.5t69.5 125.5t115 94t166.5 48.5v188h93v-188q151 -6 258 -51v-264h-127v157q-68 19 -131 19v-760q123 6 258 61l41 -116q-125 -71 -299 -80v-160h-93v160q-397 24 -397 501zM346 489q0 -332 227 -364v745q-227 -51 -227 -381z" />
    <glyph glyph-name="sterling" unicode="&#xa3;" 
d="M123 0l2 127q147 62 160 348l8 162h-137v108h143l10 220q5 90 30 162.5t71 129.5t121.5 88t175.5 31q198 0 335 -67v-269h-137v170q-100 29 -190 29q-70 0 -118.5 -20t-75.5 -60t-39.5 -88t-16.5 -117l-10 -209h379v-108h-385l-9 -166q-12 -266 -104 -342h694v-129h-907z
" />
    <glyph glyph-name="yen" unicode="&#xa5;" 
d="M31 1229v131h405v-131h-127q50 -105 146.5 -303.5t109.5 -225.5h8l258 529h-129v131h396v-131h-103q-40 -77 -138.5 -265t-151.5 -292h284v-82h-846v82h281q-51 102 -147.5 289t-137.5 268h-108zM143 403v89h846v-89h-344v-274h166v-129h-496v129h164v274h-336z" />
    <glyph glyph-name="dieresis" unicode="&#xa8;" horiz-adv-x="962" 
d="M203 1235q0 37 28 63.5t64 26.5q43 0 69.5 -25t26.5 -65q0 -39 -26.5 -64.5t-67.5 -25.5q-40 0 -67 26t-27 64zM588 1235q0 38 26 64t62 26q43 0 71.5 -25.5t28.5 -64.5q0 -38 -28.5 -64t-71.5 -26q-38 0 -63 26t-25 64z" />
    <glyph glyph-name="copyright" unicode="&#xa9;" horiz-adv-x="1710" 
d="M102 682q0 151 59.5 288.5t160.5 237t240 158.5t292 59q203 0 376.5 -99.5t275.5 -271t102 -372.5q0 -202 -102 -374t-275.5 -271.5t-376.5 -99.5q-153 0 -292 59t-240 158.5t-160.5 237.5t-59.5 290zM190 682q0 -178 90 -329t243 -238.5t331 -87.5q181 0 334 87.5
t241.5 238.5t88.5 329t-88.5 329t-241.5 238.5t-334 87.5q-178 0 -331 -87.5t-243 -238.5t-90 -329zM434 666q0 70 11.5 137.5t43 140t80 126t129 88t183.5 34.5q137 0 254 -41v-236h-101v152q-79 18 -149 18q-160 0 -240 -110.5t-80 -308.5q0 -72 9 -130t31.5 -110.5
t59 -87.5t93.5 -55.5t133 -20.5q133 0 239 33l23 -92q-51 -20 -132.5 -33.5t-152.5 -13.5q-434 0 -434 510z" />
    <glyph glyph-name="guillemotleft" unicode="&#xab;" horiz-adv-x="886" 
d="M123 346v80l299 326l70 -54l-207 -313l207 -311l-68 -51zM424 346v80l301 326l70 -54l-207 -313l207 -311l-68 -51z" />
    <glyph glyph-name="uni00AD" unicode="&#xad;" horiz-adv-x="749" 
d="M111 471v139h528v-139h-528z" />
    <glyph glyph-name="registered" unicode="&#xae;" horiz-adv-x="1189" 
d="M88 965q0 134 66 247t180.5 178.5t251.5 65.5q135 0 249 -65.5t180 -178.5t66 -247q0 -100 -39 -190.5t-105.5 -156t-158 -104.5t-192.5 -39q-136 0 -250.5 65.5t-181 178.5t-66.5 246zM162 965q0 -173 123.5 -296.5t300.5 -123.5q179 0 300.5 123t121.5 297
t-122.5 297.5t-299.5 123.5q-176 0 -300 -123.5t-124 -297.5zM356 672v67h54v463h-54v68h258q89 0 139 -42.5t50 -125.5q0 -44 -28.5 -90.5t-82.5 -69.5l99 -203l63 -8v-55q-38 -10 -80 -10q-47 0 -67 49l-103 215h-104v-191h67v-67h-211zM500 995h106q107 0 107 105
q0 53 -29.5 78.5t-75.5 25.5h-108v-209z" />
    <glyph glyph-name="acute" unicode="&#xb4;" horiz-adv-x="1007" 
d="M399 1155l252 332l117 -107l-297 -284z" />
    <glyph glyph-name="cedilla" unicode="&#xb8;" horiz-adv-x="915" 
d="M319 -426q242 23 242 121q0 26 -17.5 44t-50 26t-64.5 11t-75 3l-26 39q29 37 95 123.5t103 132.5q10 -7 32 -19.5t32 -19.5q-65 -81 -127 -164q103 -5 163 -45.5t60 -116.5q0 -92 -93.5 -150.5t-273.5 -58.5v74z" />
    <glyph glyph-name="guillemotright" unicode="&#xbb;" horiz-adv-x="886" 
d="M104 74l207 311l-207 313l70 54l299 -326v-80l-301 -323zM408 74l204 311l-204 313l69 54l299 -326v-80l-301 -323z" />
    <glyph glyph-name="circumflex" unicode="&#x2c6;" horiz-adv-x="1030" 
d="M150 1145l307 293h112l312 -289l-52 -59l-317 202l-315 -205z" />
    <glyph glyph-name="ring" unicode="&#x2da;" horiz-adv-x="1032" 
d="M295 1343q0 87 65 151.5t158 64.5q91 0 154 -63.5t63 -152.5q0 -91 -63 -153t-154 -62q-93 0 -158 62.5t-65 152.5zM395 1337q0 -47 35 -82.5t88 -35.5q49 0 83 35.5t34 82.5q0 50 -34 87.5t-83 37.5q-52 0 -87.5 -36.5t-35.5 -88.5z" />
    <glyph glyph-name="tilde" unicode="&#x2dc;" horiz-adv-x="1030" 
d="M195 1217q25 70 72 111.5t106 41.5q51 0 156 -40t139 -40l116 82l58 -45q-24 -71 -70.5 -113.5t-105.5 -42.5q-53 0 -111 20t-107 40t-79 20l-117 -80z" />
    <glyph glyph-name="afii10023" unicode="&#x401;" horiz-adv-x="1177" 
d="M84 0v131h137v1139h-131v131h997v-332h-133v201h-559v-475l533 10v-137l-533 8v-545h588v205h137v-336h-1036zM342 1579q0 36 27 63t63 27q43 0 70.5 -25t27.5 -65q0 -39 -27 -64.5t-67 -25.5q-41 0 -67.5 25t-26.5 65zM727 1579q0 37 25.5 63.5t60.5 26.5
q43 0 71.5 -25.5t28.5 -64.5t-28.5 -64.5t-71.5 -25.5q-37 0 -61.5 25.5t-24.5 64.5z" />
    <glyph glyph-name="afii10051" unicode="&#x402;" horiz-adv-x="1552" 
d="M51 1085v316h1213v-316h-136v191h-454v-496q193 80 373 80q203 0 312 -115.5t109 -306.5q0 -111 -33 -213t-90.5 -182.5t-125.5 -143.5t-148 -112l-67 90q286 220 286 533q0 159 -76.5 236t-216.5 77q-155 0 -323 -68v-530h153v-125h-473v125h148v1151h-318v-191h-133z
" />
    <glyph glyph-name="afii10052" unicode="&#x403;" horiz-adv-x="1120" 
d="M84 0v125h137v1151h-131v125h993v-318h-135v193h-553v-1151h197v-125h-508zM522 1556l252 330l117 -106l-297 -285z" />
    <glyph glyph-name="afii10053" unicode="&#x404;" horiz-adv-x="1171" 
d="M102 692q0 68 8 135.5t27.5 141t50 138t79.5 123.5t111 101t149 67t190 25q205 0 358 -55v-319h-135v208q-100 29 -219 29q-200 0 -308 -130.5t-128 -360.5q180 2 544 10v-137q-62 1 -173 2.5t-201.5 2.5t-171.5 1v-4q1 -68 8 -125t21.5 -114t37.5 -101.5t58 -83.5
t81 -64.5t108 -40t138 -14.5q66 0 163 12t175 35l31 -125q-70 -28 -184 -45.5t-215 -17.5q-603 0 -603 706z" />
    <glyph glyph-name="afii10054" unicode="&#x405;" horiz-adv-x="1118" 
d="M72 365h131l2 -172q133 -68 311 -68q165 0 254.5 71t89.5 187q0 37 -8 67t-20.5 52t-36.5 41t-45 31.5t-59 26t-65.5 22t-75.5 21.5q-7 2 -11 3q-60 17 -100.5 29.5t-91.5 32t-84.5 39t-68.5 48t-55.5 60.5t-33.5 75t-13 93q0 185 133.5 291t333.5 106q245 0 387 -84
l4 -274h-133l-4 178q-85 39 -256 39q-126 0 -206.5 -58.5t-80.5 -174.5q0 -41 17 -75t44.5 -58.5t71 -46t86.5 -35.5t101 -29q44 -11 73 -19t71 -22t70 -26.5t63 -32t58.5 -40.5t47.5 -50t37.5 -61.5t22.5 -74.5t9 -90q0 -105 -39 -183.5t-109.5 -126t-162 -70.5t-203.5 -23
q-274 0 -454 104z" />
    <glyph glyph-name="afii10055" unicode="&#x406;" horiz-adv-x="722" 
d="M143 0v129h129v1141h-129v133h437v-133h-134v-1141h134v-129h-437z" />
    <glyph glyph-name="afii10056" unicode="&#x407;" horiz-adv-x="722" 
d="M74 1579q0 36 27 63t63 27q43 0 70.5 -25t27.5 -65q0 -39 -27 -64.5t-67 -25.5q-41 0 -67.5 25t-26.5 65zM143 0v129h129v1141h-129v133h437v-133h-134v-1141h134v-129h-437zM459 1579q0 37 25.5 63.5t60.5 26.5q43 0 71.5 -25.5t28.5 -64.5t-28.5 -64.5t-71.5 -25.5
q-37 0 -61.5 25.5t-24.5 64.5z" />
    <glyph glyph-name="afii10057" unicode="&#x408;" horiz-adv-x="735" 
d="M-55 -242q110 60 177.5 113t107 115.5t53.5 129t14 163.5v991h-172v133h504v-133h-156l-2 -996q0 -254 -117.5 -403t-357.5 -231z" />
    <glyph glyph-name="afii10058" unicode="&#x409;" horiz-adv-x="1968" 
d="M25 98q58 19 104 48.5t81 71.5t61 90.5t44 115t29.5 135t17.5 161.5t8.5 183t2.5 209v162h-178v129h1050v-127h-145v-453h330q110 0 198.5 -33.5t144 -91t84.5 -131.5t29 -159q0 -199 -118.5 -303.5t-307.5 -104.5h-672v125h138v1151l-391 -2v-127q0 -111 -2 -198
t-8 -185t-17 -174t-29 -156t-43 -140t-61 -117t-81 -96t-104.5 -68t-130.5 -42zM1100 125h334q120 0 197 74t77 211q0 73 -25.5 130t-68.5 90.5t-94.5 50.5t-108.5 17h-311v-573z" />
    <glyph glyph-name="afii10059" unicode="&#x40a;" horiz-adv-x="2002" 
d="M86 0v125h131v1151h-131v125h434v-125h-127v-459h568v459h-138v127h459v-127h-147v-455h329q111 0 199.5 -33t144 -90t84.5 -131t29 -159q0 -198 -118 -303t-308 -105h-670v125h136v571h-568v-571h127v-125h-434zM1135 125h333q122 0 199.5 73t77.5 210q0 142 -87.5 215
t-211.5 73h-311v-571z" />
    <glyph glyph-name="afii10060" unicode="&#x40b;" horiz-adv-x="1675" 
d="M57 1085v316h1213v-316h-135v191h-453v-492q198 74 377 74q181 0 290 -80t109 -239v-414h131v-125h-432v125h127v373q0 123 -70.5 175t-201.5 52q-168 0 -330 -74v-526h147v-125h-467v125h150v1151h-322v-191h-133z" />
    <glyph glyph-name="afii10061" unicode="&#x40c;" horiz-adv-x="1288" 
d="M84 0v125h129v1151h-129v125h434v-125h-131v-1151h131v-125h-434zM457 707v49l428 571q34 50 69 70t80 18q90 0 170 -41l-12 -102l-178 -19l-393 -512l450 -604l189 -18v-103q-85 -32 -175 -32q-101 -3 -157 75zM584 1561l252 329l116 -106l-297 -285z" />
    <glyph glyph-name="afii10062" unicode="&#x40e;" horiz-adv-x="1204" 
d="M14 1276v127h412v-127h-129l180 -465l131 -356h10l125 356l172 465h-133v127h404v-127h-105l-409 -1079q-43 -113 -102 -161t-154 -48q-114 0 -236 35l29 118q117 -24 168 -24q53 0 87.5 28.5t61.5 100.5l35 96h-61l-377 934h-109zM264 1724l96 68q58 -78 122 -124
t122 -46q128 0 291 158l55 -51q-162 -234 -354 -234q-67 0 -131.5 35t-108.5 81t-92 113z" />
    <glyph glyph-name="afii10145" unicode="&#x40f;" horiz-adv-x="1439" 
d="M82 0v125h133v1151h-133v123h436v-123h-129v-1151h658v1151h-127v123h436v-123h-133v-1151h133v-125h-565v-352h-140v352h-569z" />
    <glyph glyph-name="afii10017" unicode="&#x410;" horiz-adv-x="1368" 
d="M41 0v129h117q398 1200 422 1274h217q71 -219 213.5 -653t203.5 -621h115v-129h-434v129h141l-82 258h-546q-51 -162 -80 -258h145v-129h-432zM453 518h460q-33 111 -98 315.5t-88 280.5q-5 20 -12 42.5t-15.5 50.5t-13.5 44h-4q-6 -28 -43 -139q-131 -406 -186 -594z
" />
    <glyph glyph-name="afii10018" unicode="&#x411;" horiz-adv-x="1257" 
d="M86 0v125h131v1151h-131v125h952v-299h-133v174h-516v-453h332q226 0 340.5 -110t114.5 -287q0 -202 -117.5 -314t-306.5 -112h-666zM389 125h340q118 0 195 79t77 216q0 143 -84 210.5t-215 67.5h-313v-573z" />
    <glyph glyph-name="afii10019" unicode="&#x412;" horiz-adv-x="1267" 
d="M82 0v129h141v1141h-133v131h615q214 0 325 -95.5t111 -263.5q0 -38 -7.5 -75t-26.5 -82t-60.5 -85t-100.5 -67q124 -37 181 -132.5t57 -215.5q0 -170 -117 -277.5t-283 -107.5h-702zM397 129h328q144 0 213.5 75t69.5 191q0 112 -74 189.5t-209 77.5h-328v-533zM397 793
h293q131 0 204 63.5t73 171.5q0 111 -68.5 176.5t-208.5 65.5h-293v-477z" />
    <glyph glyph-name="afii10020" unicode="&#x413;" horiz-adv-x="1120" 
d="M84 0v125h137v1151h-131v125h993v-318h-135v193h-553v-1151h197v-125h-508z" />
    <glyph glyph-name="afii10021" unicode="&#x414;" horiz-adv-x="1443" 
d="M57 125h111q124 112 184 400t60 653v98h-142v125h1061v-125h-133v-1151h139v-467h-137v342h-1005v-342h-138v467zM354 125h672v1151h-461v-107q0 -384 -49 -632.5t-162 -411.5z" />
    <glyph glyph-name="afii10022" unicode="&#x415;" horiz-adv-x="1177" 
d="M84 0v131h137v1139h-131v131h997v-332h-133v201h-559v-475l533 10v-137l-533 8v-545h588v205h137v-336h-1036z" />
    <glyph glyph-name="afii10024" unicode="&#x416;" horiz-adv-x="1888" 
d="M33 16v103l188 18l414 604l-393 512l-179 19l-12 102q80 41 170 41q45 2 80.5 -18t69.5 -70l428 -571v-49l-434 -648q-56 -78 -158 -75q-89 0 -174 32zM733 0v125h127v1151h-127v125h430v-125h-131v-1151h131v-125h-430zM1094 707v49l428 571q34 50 69 70t80 18
q90 0 170 -41l-12 -102l-178 -19l-394 -512l414 -604l189 -18v-103q-85 -32 -174 -32q-102 -3 -158 75z" />
    <glyph glyph-name="afii10025" unicode="&#x417;" horiz-adv-x="1163" 
d="M68 72l41 121q219 -62 350 -62q209 0 316.5 76.5t107.5 222.5q0 126 -100 198t-255 72h-170v123h164q148 0 235 73.5t87 176.5q0 217 -309 217q-152 0 -277 -53v-217h-137v315q84 41 201 64.5t229 23.5q81 0 149.5 -11t129 -36t103 -63t67 -96t24.5 -132
q0 -94 -62.5 -182t-173.5 -127q126 -38 199.5 -126.5t73.5 -219.5q0 -107 -43.5 -192t-119.5 -138t-173 -80.5t-209 -27.5q-270 0 -448 80z" />
    <glyph glyph-name="afii10026" unicode="&#x418;" horiz-adv-x="1474" 
d="M80 0v125h141v1151h-137v123h448v-123h-141v-899h4q349 421 699 840v59h-168v123h473v-123h-139v-1151h139v-125h-451v125h142v905h-5l-694 -844v-61h137v-125h-448z" />
    <glyph glyph-name="afii10027" unicode="&#x419;" horiz-adv-x="1474" 
d="M80 0v125h141v1151h-137v123h448v-123h-141v-899h4q349 421 699 840v59h-168v123h473v-123h-139v-1151h139v-125h-451v125h142v905h-5l-694 -844v-61h137v-125h-448zM401 1806l97 70q57 -78 120.5 -124t120.5 -46q132 0 293 156l55 -52q-161 -233 -354 -233
q-97 0 -176 62t-156 167z" />
    <glyph glyph-name="afii10028" unicode="&#x41a;" horiz-adv-x="1288" 
d="M84 0v125h129v1151h-129v125h434v-125h-131v-1151h131v-125h-434zM457 707v49l428 571q34 50 69 70t80 18q90 0 170 -41l-12 -102l-178 -19l-393 -512l450 -604l189 -18v-103q-85 -32 -175 -32q-101 -3 -157 75z" />
    <glyph glyph-name="afii10029" unicode="&#x41b;" horiz-adv-x="1396" 
d="M25 98q58 19 104 48.5t81 71.5t61 90.5t44 115t29.5 135t17.5 161.5t8.5 183t2.5 209v162h-178v129h1099v-127h-133v-1149h133v-127h-434v127h125v1147h-450v-127q0 -111 -2 -198t-8 -185t-17 -174t-29 -156t-43 -140t-61 -117t-81 -96t-104.5 -68t-130.5 -42z" />
    <glyph glyph-name="afii10030" unicode="&#x41c;" horiz-adv-x="1781" 
d="M59 0v129h131v1141h-131v131h361q39 -84 342 -772q26 -59 68.5 -160t56.5 -133h10q16 37 50.5 121.5t53.5 126.5l359 817h352v-131h-127v-1141h127v-129h-432v129h127v1004h-4l-90 -211q-60 -139 -144 -326q-73 -161 -192 -438h-178q-222 489 -348 778q-78 178 -86 197
h-7l-2 -1004h133v-129h-430z" />
    <glyph glyph-name="afii10031" unicode="&#x41d;" horiz-adv-x="1439" 
d="M82 0v129h133v1141h-133v131h436v-131h-129v-471h658v471h-127v131h436v-131h-133v-1141h133v-129h-436v129h127v543h-658v-543h129v-129h-436z" />
    <glyph glyph-name="afii10032" unicode="&#x41e;" horiz-adv-x="1388" 
d="M102 690q0 121 19.5 226t65 199.5t114 162t171.5 106.5t233 39q131 0 233 -39.5t166.5 -106t106.5 -161.5t58.5 -197.5t16.5 -222.5q0 -154 -37 -283t-108.5 -225t-183 -150t-252.5 -54q-603 0 -603 706zM283 688q0 -285 101 -425t321 -140q133 0 225 77t134 202t42 288
q0 594 -401 594q-422 0 -422 -596z" />
    <glyph glyph-name="afii10033" unicode="&#x41f;" horiz-adv-x="1439" 
d="M84 0v127h131v1145h-131v131h1274v-131h-133v-1145h133v-127h-438v127h127v1145h-656v-1145h129v-127h-436z" />
    <glyph glyph-name="afii10034" unicode="&#x420;" horiz-adv-x="1169" 
d="M84 0v129h131v1141h-131v133h590q198 0 317 -106t119 -302q0 -55 -12 -109.5t-42 -111.5t-76 -100.5t-120 -71t-166 -27.5h-305v-446h176v-129h-481zM389 707h273q53 0 98.5 14t85.5 44.5t63 87.5t23 136q0 141 -73 211t-204 70h-266v-563z" />
    <glyph glyph-name="afii10035" unicode="&#x421;" horiz-adv-x="1167" 
d="M102 694q0 68 8 135t28 140.5t50.5 138t79.5 123.5t111 101.5t148.5 67.5t189.5 25q202 0 356 -57v-328h-131v217q-97 27 -219 27q-150 0 -250 -75t-145 -205t-45 -312q0 -103 12 -183.5t42.5 -154t81 -121.5t130.5 -76t188 -28q68 0 163.5 11.5t170.5 35.5l33 -127
q-72 -29 -185 -47t-212 -18q-605 0 -605 710z" />
    <glyph glyph-name="afii10036" unicode="&#x422;" horiz-adv-x="1134" 
d="M29 1053v350h1079v-350h-133v217h-320v-1141h170v-129h-510v129h168v1141h-321v-217h-133z" />
    <glyph glyph-name="afii10037" unicode="&#x423;" horiz-adv-x="1204" 
d="M14 1276v127h412v-127h-129l180 -465l131 -356h10l125 356l172 465h-133v127h404v-127h-105l-409 -1079q-43 -113 -102 -161t-154 -48q-114 0 -236 35l29 118q117 -24 168 -24q53 0 87.5 28.5t61.5 100.5l35 96h-61l-377 934h-109z" />
    <glyph glyph-name="afii10038" unicode="&#x424;" horiz-adv-x="1636" 
d="M82 705q0 95 40 182.5t118.5 159.5t207.5 119t293 55v53h-127v127h433v-127h-134v-55q318 -12 479.5 -151t161.5 -357q0 -148 -85.5 -261.5t-229 -175t-326.5 -71.5v-80h134v-123h-433v123h127v80q-659 25 -659 502zM244 700q0 -97 34 -167.5t101 -114t155 -66.5t207 -30
v782q-245 -15 -371 -121.5t-126 -282.5zM913 322q213 14 345.5 118t132.5 265q0 61 -16 116.5t-52.5 105.5t-91 87t-136 61t-182.5 29v-782z" />
    <glyph glyph-name="afii10039" unicode="&#x425;" horiz-adv-x="1304" 
d="M37 131h131l379 592l-332 545h-141l2 135h452v-135h-125l259 -428l268 428h-131v135h440v-135h-133l-352 -541l370 -596h136l2 -131h-469v131h139l-291 475l-297 -475h145v-131h-450z" />
    <glyph glyph-name="afii10040" unicode="&#x426;" horiz-adv-x="1439" 
d="M80 0v125h133v1151h-133v123h436v-123h-129v-1151h657v1151h-126v123h436v-123h-133v-1151h145v-465h-137v340h-1149z" />
    <glyph glyph-name="afii10041" unicode="&#x427;" horiz-adv-x="1353" 
d="M57 1274v125h435v-125h-132v-350q0 -125 70.5 -178.5t202.5 -53.5q166 0 330 68v514h-127v125h432v-125h-135v-1149h135v-125h-437v125h132v500q-198 -68 -359 -68q-91 0 -165 18.5t-131 56.5t-88.5 101.5t-31.5 147.5v393h-131z" />
    <glyph glyph-name="afii10042" unicode="&#x428;" horiz-adv-x="1964" 
d="M84 0v125h131v1151h-131v125h432v-125h-129v-1151h510v1151h-123v125h424v-125h-127v-1151h502v1151h-125v125h432v-125h-133v-1151h133v-125h-1796z" />
    <glyph glyph-name="afii10043" unicode="&#x429;" horiz-adv-x="1964" 
d="M84 0v125h131v1151h-131v125h432v-125h-129v-1151h510v1151h-123v125h424v-125h-127v-1151h502v1151h-125v125h432v-125h-133v-1151h143v-467h-137v342h-1669z" />
    <glyph glyph-name="afii10044" unicode="&#x42a;" horiz-adv-x="1568" 
d="M33 1085v316h798v-125h-131v-453h330q217 0 337 -119t120 -296q0 -199 -118.5 -303.5t-307.5 -104.5h-676v125h141v1151h-360v-191h-133zM700 125h334q120 0 197.5 74t77.5 211q0 73 -25.5 130t-68.5 90.5t-94.5 50.5t-108.5 17h-312v-573z" />
    <glyph glyph-name="afii10045" unicode="&#x42b;" horiz-adv-x="1810" 
d="M84 0v125h141v1151h-141v127h461v-127h-146v-453h330q111 0 199.5 -33.5t144 -91t84.5 -131.5t29 -159q0 -199 -118.5 -303.5t-307.5 -104.5h-676zM399 125h334q120 0 198.5 74t78.5 211q0 73 -25.5 130t-69 90.5t-95.5 50.5t-109 17h-312v-573zM1282 0v125h129v1151
h-129v125h436v-125h-133v-1151h133v-125h-436z" />
    <glyph glyph-name="afii10046" unicode="&#x42c;" horiz-adv-x="1277" 
d="M94 0v125h142v1151h-142v127h461v-127h-145v-453h329q111 0 199.5 -33.5t144 -91t84.5 -131.5t29 -159q0 -199 -118.5 -303.5t-307.5 -104.5h-676zM410 125h333q120 0 198.5 74t78.5 211q0 73 -25.5 130t-69 90.5t-95.5 50.5t-109 17h-311v-573z" />
    <glyph glyph-name="afii10047" unicode="&#x42d;" horiz-adv-x="1169" 
d="M55 47q5 21 18.5 62t18.5 63q78 -23 170.5 -36t155.5 -13q105 0 188 31.5t137 84t90 126t51.5 153t16.5 170.5l-541 -8v137l541 -10q-5 226 -105 352.5t-307 126.5q-58 0 -130.5 -9.5t-116.5 -21.5v-211h-133v320q167 59 378 59q104 0 189 -21t146 -56.5t107 -87.5
t74.5 -109.5t46.5 -127.5t24.5 -136.5t6.5 -141.5q0 -125 -22.5 -235t-72 -206.5t-123 -166t-181.5 -109.5t-242 -40q-101 0 -210 16.5t-175 44.5z" />
    <glyph glyph-name="afii10048" unicode="&#x42e;" horiz-adv-x="1918" 
d="M82 0v127h133v1149h-133v123h436v-123h-129v-477h289q9 107 32 196.5t67.5 170.5t108 136.5t157.5 88t212 32.5q562 0 562 -729q0 -155 -34 -282.5t-101.5 -223.5t-176 -149t-250.5 -53q-579 0 -579 686h-287v-545h129v-127h-436zM852 686q0 -290 92.5 -430.5
t310.5 -140.5q100 0 175.5 44.5t120 124t66 181.5t21.5 225q0 65 -3.5 120t-13.5 118.5t-27 113.5t-46.5 98t-68.5 79.5t-96.5 51t-127.5 19.5q-71 0 -129 -18t-99 -48.5t-72.5 -75.5t-50.5 -95.5t-31 -113.5t-16.5 -123t-4.5 -130z" />
    <glyph glyph-name="afii10049" unicode="&#x42f;" horiz-adv-x="1304" 
d="M25 10v99l149 18l254 508q-66 14 -116.5 43t-80.5 64.5t-49 80.5t-25.5 85t-6.5 83q0 193 118 302.5t312 109.5h600v-127h-131v-1151h139v-125h-459v125h148v485h-289l-254 -518q-26 -59 -55 -83.5t-89 -24.5q-85 0 -165 26zM326 993q0 -63 18.5 -111t47 -75.5t68 -45
t76 -23t76.5 -5.5h265v543h-279q-120 0 -196 -73t-76 -210z" />
    <glyph glyph-name="afii10065" unicode="&#x430;" horiz-adv-x="1054" 
d="M70 270q0 131 94.5 209t279.5 90l254 17v65q0 130 -45.5 179t-167.5 49q-147 0 -307 -56q-27 83 -35 113q177 80 381 80q165 0 249.5 -77t84.5 -255v-557h158l10 -96q-34 -18 -95.5 -29.5t-103.5 -11.5q-63 0 -93.5 25t-31.5 98q-1 0 -2 1t-2 1q-53 -46 -106 -75
t-101 -40t-73 -13.5t-60 -2.5q-66 0 -118 19t-83.5 48.5t-51.5 68.5t-27.5 75.5t-7.5 74.5zM246 287q0 -88 43.5 -128t140.5 -40q63 0 136 32.5t130 86.5v239l-250 -16q-95 -6 -147.5 -53t-52.5 -121z" />
    <glyph glyph-name="afii10066" unicode="&#x431;" horiz-adv-x="1044" 
d="M82 465q0 352 22 469q66 317 420 461q21 8 148.5 58.5t175.5 72.5l51 -107q-80 -43 -225 -102q-91 -36 -150 -65.5t-114 -70.5t-88 -90t-57 -117.5t-34 -158.5q3 0 5 -2q52 81 139 128.5t192 47.5q106 0 184 -37.5t123 -106.5t66 -156.5t21 -196.5q0 -76 -13 -145
t-45.5 -137t-82.5 -117t-130 -79t-182 -30q-97 0 -173.5 29.5t-123 77t-76.5 112t-41.5 128.5t-11.5 134zM254 467q0 -56 5 -100.5t22 -94t45.5 -82.5t79 -55t118.5 -22q62 0 109.5 21.5t76.5 56t47 84t24.5 99t6.5 107.5q0 62 -5.5 112.5t-21.5 103t-43 87.5t-72.5 57.5
t-106.5 22.5q-60 0 -109.5 -25.5t-81.5 -66t-53.5 -93.5t-31 -106t-9.5 -106z" />
    <glyph glyph-name="afii10067" unicode="&#x432;" horiz-adv-x="1011" 
d="M66 0v121h106v760h-102v118h522q160 0 244 -69.5t84 -188.5q0 -141 -121 -213q58 -24 94 -68t47.5 -87t11.5 -92q0 -124 -92.5 -202.5t-222.5 -78.5h-571zM336 119h244q106 0 156 51t50 125q0 71 -53.5 120.5t-152.5 49.5h-244v-346zM336 571h231q85 0 136 43.5t51 110.5
q0 72 -49.5 115t-151.5 43h-217v-312z" />
    <glyph glyph-name="afii10068" unicode="&#x433;" horiz-adv-x="892" 
d="M68 0v121h106v760h-100v118h784v-292h-123v174h-397v-760h151v-121h-421z" />
    <glyph glyph-name="afii10069" unicode="&#x434;" horiz-adv-x="1183" 
d="M61 121h95q51 39 84.5 116.5t48 187.5t19 192.5t5.5 197.5v66h-123v118h805l-2 -878h99v-400h-131v279h-766v-279h-134v400zM342 121h487v760h-360v-72q0 -528 -127 -688z" />
    <glyph glyph-name="afii10070" unicode="&#x435;" horiz-adv-x="993" 
d="M82 498q0 42 4.5 85.5t17.5 96t33.5 99.5t54.5 92.5t78.5 78t108.5 52.5t141 20q63 0 115.5 -12.5t90.5 -33t69 -51t50.5 -61.5t34 -70t21.5 -70t11 -69.5t5 -60.5t1 -49v-90h-664q-4 -340 281 -340q85 0 156 16t159 53l45 -108q-174 -92 -373 -92q-103 0 -182 28.5
t-127 75.5t-78 115t-41.5 139t-11.5 156zM258 582h498q-2 70 -14 123t-38 96.5t-73 66.5t-113 23q-64 0 -113 -25t-79.5 -68.5t-47 -97.5t-20.5 -118z" />
    <glyph glyph-name="afii10072" unicode="&#x436;" horiz-adv-x="1560" 
d="M43 16v86l143 17l301 411l-286 353l-127 8l-8 90q58 35 135 35q41 0 70 -14t57 -52l323 -411v-33l-332 -461q-28 -35 -57.5 -48t-71.5 -13q-33 0 -77 9t-70 23zM567 877v122h424v-122h-131v-758h135v-119h-426v119h125v758h-127zM901 506v33l324 411q28 38 57 52t70 14
q77 0 135 -35l-8 -90l-127 -8l-287 -353l305 -411l143 -17v-86q-26 -14 -70 -23t-77 -9q-42 0 -71.5 13t-57.5 48z" />
    <glyph glyph-name="afii10073" unicode="&#x437;" horiz-adv-x="923" 
d="M47 55l39 107q166 -56 289 -56q293 0 293 203q0 49 -22 85t-58.5 53.5t-73.5 25.5t-76 8h-153v113h129q225 5 225 158q0 68 -51.5 107.5t-153.5 39.5q-124 0 -223 -35v-164h-123v250q69 32 170.5 53t190.5 21q166 0 262 -67t96 -185q0 -82 -48.5 -140.5t-119.5 -80.5v-6
q87 -22 141 -87t54 -155q0 -106 -60 -179.5t-155.5 -106.5t-217.5 -33q-96 0 -195 21t-159 50z" />
    <glyph glyph-name="afii10074" unicode="&#x438;" horiz-adv-x="1198" 
d="M43 879v120h309v-759h8q17 25 48 75.5t47 75.5l215 332l176 276h160q0 -145 1 -436t1 -436h145v-100q-78 -37 -172 -37q-68 0 -104.5 35.5t-36.5 99.5v639h-6q-2 -3 -122.5 -192t-237 -370.5t-130.5 -201.5h-156v879h-145z" />
    <glyph glyph-name="afii10075" unicode="&#x439;" horiz-adv-x="1198" 
d="M43 879v120h309v-759h8q17 25 48 75.5t47 75.5l215 332l176 276h160q0 -145 1 -436t1 -436h145v-100q-78 -37 -172 -37q-68 0 -104.5 35.5t-36.5 99.5v639h-6q-2 -3 -122.5 -192t-237 -370.5t-130.5 -201.5h-156v879h-145zM246 1354l96 69q57 -78 121 -124t121 -46
q132 0 293 156l55 -51q-162 -234 -354 -234q-51 0 -99 19t-90 54t-74.5 71.5t-68.5 85.5z" />
    <glyph glyph-name="afii10076" unicode="&#x43a;" horiz-adv-x="1062" 
d="M37 881v118h325v-878h136v-121h-441v121h140v760h-160zM399 506v33l334 411q28 38 57 52t70 14q77 0 135 -35l-8 -90l-127 -8l-297 -353l320 -411l143 -17v-86q-26 -14 -70 -23t-77 -9q-42 0 -71.5 13t-57.5 48z" />
    <glyph glyph-name="afii10077" unicode="&#x43b;" horiz-adv-x="1120" 
d="M31 84q55 26 95 57t67.5 76t44.5 94t26 123t12 148.5t3 185.5v113h-156v118h809v-878h127v-121h-418v121h125v760h-328v-86q0 -105 -2 -178.5t-10.5 -160.5t-23 -147t-41 -123t-63.5 -105t-91.5 -75.5t-124.5 -50.5z" />
    <glyph glyph-name="afii10078" unicode="&#x43c;" horiz-adv-x="1501" 
d="M49 879v120h330l248 -473q57 -111 121 -243h4q2 5 21.5 45.5t49 102.5t58.5 120l223 448h311v-120h-137v-752h149v-100q-78 -37 -170 -37q-29 0 -51 7t-36.5 16.5t-24.5 28.5t-14.5 33t-7 40t-3 40.5t-0.5 43.5v12v504h-8q-13 -27 -44 -93.5t-48 -99.5q-13 -27 -90 -181
t-121 -243h-119q-6 14 -40 78.5t-92.5 175.5t-90.5 172q-92 174 -105 203h-8v-727h-157v879h-148z" />
    <glyph glyph-name="afii10079" unicode="&#x43d;" horiz-adv-x="1148" 
d="M31 881v118h301v-413h481v413h166v-872h147v-100q-83 -39 -174 -39q-73 0 -106 31t-33 112v338h-483v-469h-166v881h-133z" />
    <glyph glyph-name="afii10080" unicode="&#x43e;" horiz-adv-x="1046" 
d="M82 494q0 82 15 157t49 143t85 117.5t127.5 79t171.5 29.5q97 0 173 -29.5t124.5 -78.5t80 -117.5t44.5 -141t13 -155.5q0 -102 -22.5 -189t-72.5 -162.5t-141.5 -119t-216.5 -43.5q-118 0 -204 41t-134 114t-70 160.5t-22 194.5zM256 494q0 -66 5.5 -116.5t23 -101.5
t47 -84t79 -54t117.5 -21q63 0 111 22.5t76.5 58t46.5 86.5t24.5 101.5t6.5 108.5q0 74 -10.5 136.5t-36.5 123.5t-79 96t-130 35q-65 0 -115.5 -23t-81 -59.5t-50 -89t-27 -105.5t-7.5 -114z" />
    <glyph glyph-name="afii10081" unicode="&#x43f;" horiz-adv-x="1204" 
d="M41 868v129h1114v-129h-156v-741h150v-100q-80 -39 -174 -39q-73 0 -106.5 31t-34.5 112v737h-476v-868h-165v868h-152z" />
    <glyph glyph-name="afii10082" unicode="&#x440;" horiz-adv-x="1103" 
d="M27 -299h155v1167h-155v129h313v-94l4 -2q62 49 146.5 80t162.5 31q104 0 179.5 -39t118 -109.5t62 -156t19.5 -191.5q0 -119 -22 -214t-68.5 -168.5t-126.5 -113.5t-188 -40q-154 0 -277 67v-346h168v-129h-491v129zM350 195q37 -27 112 -50.5t140 -23.5q44 0 80.5 10.5
t70 37.5t56.5 70.5t37 114t14 162.5q0 195 -63.5 271.5t-184.5 76.5q-68 0 -145 -32t-117 -70v-567z" />
    <glyph glyph-name="afii10083" unicode="&#x441;" horiz-adv-x="927" 
d="M82 487q0 71 10.5 138t41.5 141.5t79 129t131 90.5t191 36q170 0 294 -53v-264h-127v157q-68 19 -135 19q-158 0 -236.5 -101.5t-78.5 -290.5q0 -179 67 -273.5t216 -94.5q142 0 294 61l41 -116q-66 -37 -158.5 -59.5t-189.5 -22.5q-440 0 -440 503z" />
    <glyph glyph-name="afii10084" unicode="&#x442;" horiz-adv-x="948" 
d="M41 739v260h866v-260h-123v142h-227v-760h135v-121h-428v121h129v760h-229v-142h-123z" />
    <glyph glyph-name="afii10085" unicode="&#x443;" horiz-adv-x="1091" 
d="M31 872v127h231l207 -669l61 -213h11l69 215l178 545h-126v122h391v-122h-103l-352 -1035q-42 -124 -71 -169q-66 -102 -201 -110q-15 -1 -31 -1q-89 0 -205 35l25 116q116 -22 166 -22q66 0 107.5 50t72.5 144l39 121h-82q-125 386 -285 866h-102z" />
    <glyph glyph-name="afii10086" unicode="&#x444;" horiz-adv-x="1368" 
d="M82 494q0 112 31 204t93.5 162.5t163.5 111t234 44.5v321h-158v119h316v-440q263 -3 393.5 -137.5t130.5 -364.5q0 -111 -28.5 -201t-88.5 -161.5t-163 -114.5t-244 -51v-293h174v-121h-487v121h155v293q-522 18 -522 508zM244 498q0 -384 360 -389v780q-104 -4 -176 -35
t-111.5 -85.5t-56 -119.5t-16.5 -151zM762 109q362 14 362 395q0 86 -17 151.5t-56 119.5t-112 83.5t-177 30.5v-780z" />
    <glyph glyph-name="afii10087" unicode="&#x445;" horiz-adv-x="1003" 
d="M14 0v127h103l276 401l-205 340h-151v131h252l213 -370l153 239h-82l2 131h377v-131h-114l-238 -342l250 -399h139v-127h-405v127h75l-172 293l-182 -293h90v-127h-381z" />
    <glyph glyph-name="afii10088" unicode="&#x446;" horiz-adv-x="1183" 
d="M63 877v122h289v-876h479v754h-98v122h371v-122h-107v-754h121v-399h-133v276h-917v123h120v754h-125z" />
    <glyph glyph-name="afii10089" unicode="&#x447;" horiz-adv-x="1157" 
d="M25 879v120h317v-270q0 -118 34.5 -169.5t137.5 -51.5q162 0 283 65v428h168v-882h143q0 -66 2 -101q-80 -34 -174 -34q-72 0 -105.5 42.5t-33.5 112.5v310q-135 -76 -326 -76q-77 0 -133 19t-87 47.5t-49 73t-23 84.5t-5 93v189h-149z" />
    <glyph glyph-name="afii10090" unicode="&#x448;" horiz-adv-x="1601" 
d="M63 877v122h289v-876h361v754h-92v122h358v-122h-100v-754h370v754h-84v122h361v-122h-111v-754h121v-123h-1470v123h120v754h-123z" />
    <glyph glyph-name="afii10091" unicode="&#x449;" horiz-adv-x="1603" 
d="M63 877v122h289v-876h361v754h-92v122h358v-122h-100v-754h370v754h-82v122h355v-122h-107v-754h121v-399h-133v276h-1337v123h120v754h-123z" />
    <glyph glyph-name="afii10092" unicode="&#x44a;" horiz-adv-x="1261" 
d="M29 707v292h559v-397h268q88 0 156 -24.5t108.5 -66.5t61 -95t20.5 -115q0 -141 -92 -221t-236 -80h-450v881h-270v-174h-125zM588 119h258q90 0 142 46.5t52 133.5q0 94 -58 140t-155 46h-239v-366z" />
    <glyph glyph-name="afii10093" unicode="&#x44b;" horiz-adv-x="1472" 
d="M41 881v118h315v-399h269q171 0 258.5 -85.5t87.5 -213.5q0 -142 -92.5 -221.5t-235.5 -79.5h-448v881h-154zM356 117h258q90 0 142.5 47.5t52.5 134.5q0 94 -58.5 140t-154.5 46h-240v-368zM989 879v120h281v-872h149v-100q-75 -37 -174 -37q-76 0 -108.5 44.5
t-32.5 139.5v705h-115z" />
    <glyph glyph-name="afii10094" unicode="&#x44c;" horiz-adv-x="1030" 
d="M41 881v118h315v-399h269q171 0 258.5 -85.5t87.5 -213.5q0 -142 -92.5 -221.5t-235.5 -79.5h-448v881h-154zM356 117h258q90 0 142.5 47.5t52.5 134.5q0 94 -58.5 140t-154.5 46h-240v-368z" />
    <glyph glyph-name="afii10095" unicode="&#x44d;" horiz-adv-x="970" 
d="M49 66l43 104q146 -57 287 -57q150 0 232.5 102t84.5 258l-415 -6v117l415 -11q-11 153 -80 238.5t-198 85.5q-94 0 -182 -25v-159h-121l-2 252q129 57 311 57q105 0 185 -29.5t128 -77t78.5 -114t41.5 -132t11 -139.5q1 -85 -14 -161t-51 -147t-89.5 -122t-136.5 -81.5
t-186 -30.5q-205 0 -342 78z" />
    <glyph glyph-name="afii10096" unicode="&#x44e;" horiz-adv-x="1488" 
d="M45 879v120h311v-415h199q9 90 38 166.5t79.5 138.5t131 97.5t183.5 35.5q92 0 165 -29.5t120 -79t78 -118t44 -142t13 -155.5q0 -102 -22.5 -189.5t-71.5 -162.5t-137.5 -118.5t-208.5 -43.5q-111 0 -193 38.5t-128.5 107.5t-69.5 152.5t-25 186.5h-195v-469h-163v879
h-148zM721 494q0 -67 5 -117t21.5 -102.5t45 -85.5t77.5 -54.5t117 -21.5q59 0 104.5 23t72.5 59t44 88t23 103t6 110q0 58 -5.5 109t-22.5 105.5t-43.5 93t-72.5 63t-106 24.5q-75 0 -129 -34.5t-83 -94t-41.5 -125.5t-12.5 -143z" />
    <glyph glyph-name="afii10097" unicode="&#x44f;" horiz-adv-x="1067" 
d="M25 6v98l129 15q29 53 90.5 160.5t89.5 160.5q-48 10 -85.5 30.5t-60.5 46t-38 57.5t-21 62.5t-6 63.5q0 145 94.5 222t239.5 77h504v-120h-103v-752h146v-100q-80 -39 -173 -39q-73 0 -105.5 31t-33.5 112v291h-209l-190 -354q-49 -86 -131 -86q-70 0 -137 24zM285 698
q0 -161 209 -161h198v344h-215q-87 0 -139.5 -47.5t-52.5 -135.5z" />
    <glyph glyph-name="afii10071" unicode="&#x451;" horiz-adv-x="993" 
d="M82 498q0 42 4.5 85.5t17.5 96t33.5 99.5t54.5 92.5t78.5 78t108.5 52.5t141 20q63 0 115.5 -12.5t90.5 -33t69 -51t50.5 -61.5t34 -70t21.5 -70t11 -69.5t5 -60.5t1 -49v-90h-664q-4 -340 281 -340q85 0 156 16t159 53l45 -108q-174 -92 -373 -92q-103 0 -182 28.5
t-127 75.5t-78 115t-41.5 139t-11.5 156zM231 1249q0 37 28.5 63.5t64.5 26.5q43 0 69.5 -25t26.5 -65q0 -39 -26.5 -64.5t-67.5 -25.5q-40 0 -67.5 26t-27.5 64zM258 582h498q-2 70 -14 123t-38 96.5t-73 66.5t-113 23q-64 0 -113 -25t-79.5 -68.5t-47 -97.5t-20.5 -118z
M616 1249q0 38 26.5 64t62.5 26q43 0 71.5 -25.5t28.5 -64.5q0 -38 -28.5 -64t-71.5 -26q-38 0 -63.5 26t-25.5 64z" />
    <glyph glyph-name="afii10099" unicode="&#x452;" horiz-adv-x="1105" 
d="M10 1337v119h334v-272h442v-90h-442v-236q177 80 313 80q181 0 271 -121t90 -387q0 -109 -20 -193.5t-66.5 -152.5t-131 -104.5t-204.5 -36.5q-27 0 -45 2l4 118q80 1 133 17.5t91.5 58t55.5 113.5t17 182q0 109 -16.5 183.5t-49 115t-73.5 57.5t-97 17q-116 0 -272 -74
v-733h-168v1094h-108v90h108v153h-166z" />
    <glyph glyph-name="afii10100" unicode="&#x453;" horiz-adv-x="892" 
d="M68 0v121h106v760h-100v118h784v-292h-123v174h-397v-760h151v-121h-421zM309 1217l252 331l117 -106l-297 -285z" />
    <glyph glyph-name="afii10101" unicode="&#x454;" horiz-adv-x="927" 
d="M82 487q0 71 10.5 138t41.5 141.5t79 129t131 90.5t191 36q167 0 301 -57v-252h-123v153q-76 25 -170 25q-127 0 -203.5 -87.5t-85.5 -244.5q136 4 416 8v-112l-416 6q11 -348 281 -348q131 0 296 63l39 -104q-66 -38 -159 -61t-189 -23q-122 0 -209.5 37t-137 106.5
t-71.5 156.5t-22 199z" />
    <glyph glyph-name="afii10102" unicode="&#x455;" horiz-adv-x="894" 
d="M59 297h129l7 -135q86 -45 213 -45q243 0 243 151q0 39 -16 68t-50 49t-65 32t-84 27q-5 1 -15 4q-154 44 -216 79q-125 72 -125 210q0 144 102 213.5t267 69.5q184 0 303 -74l6 -233h-133l-4 141q-76 31 -166 31q-93 0 -149 -35.5t-56 -110.5q0 -21 9 -39.5t30 -33.5
t36 -24.5t48 -21t44 -15t44 -13.5q140 -41 188 -64q138 -65 163 -190q7 -33 7 -70q0 -95 -53.5 -160.5t-141 -94.5t-204.5 -29q-232 0 -357 77z" />
    <glyph glyph-name="afii10103" unicode="&#x456;" horiz-adv-x="598" 
d="M115 868v129h270v-870h150v-100q-36 -18 -86.5 -28.5t-88.5 -10.5q-73 0 -106.5 31t-34.5 112v737h-104zM186 1262q0 46 32 78t77 32q46 0 78.5 -32t32.5 -78q0 -43 -33 -76t-78 -33q-44 0 -76.5 33t-32.5 76z" />
    <glyph glyph-name="afii10104" unicode="&#x457;" horiz-adv-x="598" 
d="M-23 1235q0 37 28.5 63.5t64.5 26.5q43 0 69.5 -25t26.5 -65q0 -39 -26.5 -64.5t-67.5 -25.5q-40 0 -67.5 26t-27.5 64zM104 879v120h281v-872h150v-100q-36 -18 -86.5 -28.5t-88.5 -10.5q-73 0 -105.5 31t-33.5 112v748h-117zM362 1235q0 38 26.5 64t62.5 26
q43 0 71.5 -25.5t28.5 -64.5q0 -38 -28.5 -64t-71.5 -26q-38 0 -63.5 26t-25.5 64z" />
    <glyph glyph-name="afii10105" unicode="&#x458;" horiz-adv-x="571" 
d="M-39 -356q65 39 110 75t73 70.5t44 75.5t21.5 80.5t5.5 93.5v829h-141v129h307v-940q0 -209 -78.5 -324.5t-284.5 -199.5zM182 1262q0 46 32 78t77 32t77.5 -32.5t32.5 -77.5q0 -43 -33 -76t-77 -33t-76.5 33t-32.5 76z" />
    <glyph glyph-name="afii10106" unicode="&#x459;" horiz-adv-x="1568" 
d="M31 84q55 26 95 57t67.5 76t44.5 94t26 123t12 148.5t3 185.5v113h-156v118h772v-397h270q170 0 257 -85.5t87 -215.5q0 -141 -91.5 -221t-235.5 -80h-449v881h-295v-86q0 -105 -2 -178.5t-10.5 -160.5t-23 -147t-41 -123t-63.5 -105t-91.5 -75.5t-124.5 -50.5zM895 119
h260q89 0 141 46.5t52 133.5q0 94 -57.5 140t-153.5 46h-242v-366z" />
    <glyph glyph-name="afii10107" unicode="&#x45a;" horiz-adv-x="1595" 
d="M45 881v118h299v-405h416v287h-150v118h312v-401h268q172 0 259 -84t87 -213q0 -141 -92 -221t-236 -80h-448v481h-416v-481h-164v881h-135zM922 119h262q87 0 138.5 46.5t51.5 133.5q0 94 -57.5 139t-153.5 45h-241v-364z" />
    <glyph glyph-name="afii10108" unicode="&#x45b;" horiz-adv-x="1193" 
d="M41 1341v115h317v-268h445v-88h-445v-262q82 52 177.5 82t171.5 30q78 0 134.5 -20t86.5 -49t47.5 -75.5t21.5 -85t4 -91.5v-502h146v-100q-83 -39 -172 -39q-73 0 -105.5 31t-33.5 112v457q0 46 -3 76.5t-13 61.5t-28.5 48t-51 28t-78.5 11q-66 0 -150.5 -29t-153.5 -69
v-715h-168v1100h-108v88h108v153h-149z" />
    <glyph glyph-name="afii10109" unicode="&#x45c;" horiz-adv-x="1062" 
d="M37 881v118h325v-878h136v-121h-441v121h140v760h-160zM399 506v33l334 411q28 38 57 52t70 14q77 0 135 -35l-8 -90l-127 -8l-297 -353l320 -411l143 -17v-86q-26 -14 -70 -23t-77 -9q-42 0 -71.5 13t-57.5 48zM414 1155l252 332l116 -107l-297 -284z" />
    <glyph glyph-name="afii10110" unicode="&#x45e;" horiz-adv-x="1091" 
d="M37 868v131h225l207 -669l61 -217h11q2 6 13.5 42.5t32 99.5t38.5 118l163 495h-126v131h382v-131h-102l-375 -1118q-37 -106 -97.5 -147t-170.5 -41q-96 0 -209 35l29 147q121 -23 166 -23q61 0 93 18.5t54 80.5l68 186h-86l-275 862h-102zM197 1358l96 69
q57 -78 121 -124t121 -46q131 0 292 156l56 -51q-162 -234 -355 -234q-51 0 -99 18.5t-90 54t-74 72t-68 85.5z" />
    <glyph glyph-name="afii10193" unicode="&#x45f;" horiz-adv-x="1183" 
d="M63 879v120h289v-880h479v760h-98v120h369v-120h-105v-758q21 0 61 -1t60 -1v-119h-459v-295h-137v295h-454v119h120v760h-125z" />
    <glyph glyph-name="afii10050" unicode="&#x490;" horiz-adv-x="1120" 
d="M84 0v125h137v1151h-131v125h858v264h135v-389h-688v-1151h197v-125h-508z" />
    <glyph glyph-name="afii10098" unicode="&#x491;" horiz-adv-x="890" 
d="M68 0v119h106v760h-102v120h659v218h123v-338h-516v-760h149v-119h-419z" />
    <glyph glyph-name="afii10846" unicode="&#x4d9;" horiz-adv-x="993" 
d="M92 465v76h666q4 352 -283 352q-84 0 -155 -16.5t-160 -53.5l-41 105q169 94 368 94q104 0 182.5 -27t127 -72t78.5 -111.5t41.5 -138.5t11.5 -161q0 -43 -4 -85.5t-16.5 -96t-32.5 -100t-54.5 -92t-78.5 -78t-109.5 -52.5t-143.5 -20q-63 0 -115.5 12.5t-90.5 33
t-68.5 51.5t-50 61t-34 69.5t-21.5 70.5t-11 69.5t-5 60.5t-1 49zM252 440q0 -156 54 -239.5t183 -83.5q69 0 120 26t81 72.5t45.5 101.5t20.5 123h-504z" />
    <glyph glyph-name="uni2000" unicode="&#x2000;" horiz-adv-x="945" 
 />
    <glyph glyph-name="uni2001" unicode="&#x2001;" horiz-adv-x="1890" 
 />
    <glyph glyph-name="uni2002" unicode="&#x2002;" horiz-adv-x="945" 
 />
    <glyph glyph-name="uni2003" unicode="&#x2003;" horiz-adv-x="1890" 
 />
    <glyph glyph-name="uni2004" unicode="&#x2004;" horiz-adv-x="630" 
 />
    <glyph glyph-name="uni2005" unicode="&#x2005;" horiz-adv-x="472" 
 />
    <glyph glyph-name="uni2006" unicode="&#x2006;" horiz-adv-x="315" 
 />
    <glyph glyph-name="uni2007" unicode="&#x2007;" horiz-adv-x="315" 
 />
    <glyph glyph-name="uni2008" unicode="&#x2008;" horiz-adv-x="236" 
 />
    <glyph glyph-name="uni2009" unicode="&#x2009;" horiz-adv-x="378" 
 />
    <glyph glyph-name="uni200A" unicode="&#x200a;" horiz-adv-x="105" 
 />
    <glyph glyph-name="uni2010" unicode="&#x2010;" horiz-adv-x="749" 
d="M111 471v139h528v-139h-528z" />
    <glyph glyph-name="uni2011" unicode="&#x2011;" horiz-adv-x="749" 
d="M111 471v139h528v-139h-528z" />
    <glyph glyph-name="figuredash" unicode="&#x2012;" horiz-adv-x="749" 
d="M111 471v139h528v-139h-528z" />
    <glyph glyph-name="endash" unicode="&#x2013;" horiz-adv-x="1024" 
d="M63 463v123h902v-123h-902z" />
    <glyph glyph-name="emdash" unicode="&#x2014;" horiz-adv-x="2048" 
d="M70 463v123h1900v-123h-1900z" />
    <glyph glyph-name="quoteleft" unicode="&#x2018;" horiz-adv-x="440" 
d="M106 1143q0 86 61.5 178.5t147.5 136.5l41 -55q-87 -80 -92 -182q74 -22 74 -105q0 -42 -33 -74t-78 -32q-55 0 -88 37t-33 96z" />
    <glyph glyph-name="quoteright" unicode="&#x2019;" horiz-adv-x="440" 
d="M109 1065q84 77 92 180q-35 10 -54.5 38t-19.5 67q0 43 33 75.5t78 32.5q55 0 87.5 -37.5t32.5 -95.5q0 -87 -60 -179t-148 -136z" />
    <glyph glyph-name="quotesinglbase" unicode="&#x201a;" horiz-adv-x="430" 
d="M88 -215q89 99 98 205q-88 5 -88 104q0 43 32 75t81 32q55 0 89 -36.5t34 -94.5q0 -88 -52 -178.5t-149 -155.5z" />
    <glyph glyph-name="quotedblleft" unicode="&#x201c;" horiz-adv-x="702" 
d="M104 1143q0 88 60 178.5t149 136.5l41 -55q-87 -80 -92 -182q34 -11 54 -38.5t20 -66.5q0 -42 -33 -74t-80 -32q-54 0 -86.5 37t-32.5 96zM379 1143q0 86 61.5 178.5t147.5 136.5q41 -53 43 -55q-89 -79 -94 -182q73 -22 73 -105q0 -42 -32.5 -74t-77.5 -32q-55 0 -88 37
t-33 96z" />
    <glyph glyph-name="quotedblright" unicode="&#x201d;" horiz-adv-x="702" 
d="M106 1065q87 77 95 180q-35 10 -54.5 38t-19.5 67q0 44 32.5 76t78.5 32q55 0 87.5 -37.5t32.5 -95.5q0 -87 -60 -179t-148 -136zM383 1065q87 80 92 180q-35 10 -54.5 38t-19.5 67q0 43 33 75.5t80 32.5q53 0 86 -37.5t33 -95.5q0 -88 -60 -179.5t-149 -135.5z" />
    <glyph glyph-name="quotedblbase" unicode="&#x201e;" horiz-adv-x="718" 
d="M88 -215q89 99 98 205q-88 5 -88 104q0 43 32 75t81 32q55 0 89 -36.5t34 -94.5q0 -88 -52 -178.5t-149 -155.5zM387 -215q89 99 98 205q-88 5 -88 104q0 43 32 75t81 32q55 0 89 -36.5t34 -94.5q0 -88 -52 -178.5t-149 -155.5z" />
    <glyph glyph-name="bullet" unicode="&#x2022;" horiz-adv-x="657" 
d="M109 561q0 92 64.5 157.5t154.5 65.5t154.5 -65.5t64.5 -157.5q0 -89 -65 -155t-154 -66t-154 66t-65 155z" />
    <glyph glyph-name="ellipsis" unicode="&#x2026;" horiz-adv-x="1306" 
d="M94 92q0 43 33 75t78 32q44 0 76 -32t32 -75q0 -45 -32 -78.5t-74 -33.5q-46 0 -79.5 33t-33.5 79zM532 92q0 43 32 75t77 32t77 -32t32 -75q0 -46 -32 -79t-75 -33q-46 0 -78.5 33t-32.5 79zM995 92q0 43 32.5 75t76.5 32q45 0 76.5 -32t31.5 -75q0 -46 -31.5 -79
t-74.5 -33q-46 0 -78.5 33t-32.5 79z" />
    <glyph glyph-name="uni202F" unicode="&#x202f;" horiz-adv-x="378" 
 />
    <glyph glyph-name="guilsinglleft" unicode="&#x2039;" horiz-adv-x="645" 
d="M127 346v80l299 326l70 -54l-207 -313l207 -311l-68 -51z" />
    <glyph glyph-name="guilsinglright" unicode="&#x203a;" horiz-adv-x="645" 
d="M127 74l205 311l-205 313l70 54l299 -326v-80l-301 -323z" />
    <glyph glyph-name="uni205F" unicode="&#x205f;" horiz-adv-x="472" 
 />
    <glyph glyph-name="Euro" unicode="&#x20ac;" 
d="M66 551v84h854v-84h-590q8 -97 31.5 -171t69.5 -134.5t124 -92.5t186 -32q106 0 215 24v168h129v-272q-65 -24 -170 -39.5t-196 -15.5q-136 0 -240.5 40.5t-171.5 116t-103 177.5t-42 231h-96zM66 733v84h100q9 82 32 158t67.5 150.5t106.5 129t154.5 88t204.5 33.5
q177 0 330 -53v-268h-129v159q-96 29 -197 29q-179 0 -278 -111.5t-125 -314.5h588v-84h-854z" />
    <glyph glyph-name="trademark" unicode="&#x2122;" horiz-adv-x="1552" 
d="M68 1212v189h555v-189h-82v107h-142v-508h88v-78h-288v78h86v508h-135v-107h-82zM676 731v80h74v506h-74v84h201l88 -191l116 -249h2l119 249q32 66 90 191h199v-84h-72v-506h72v-80h-250v80h70v403h-4q-18 -38 -83.5 -167.5t-99.5 -202.5h-88l-61 129l-117 231h-2v-393
h74v-80h-254z" />
    <glyph glyph-name="uni25FC" unicode="&#x25fc;" horiz-adv-x="1003" 
d="M0 0v1004h1004v-1004h-1004z" />
    </font>
</defs>
</svg>
