<svg width="32" height="32" viewBox="0 0 32 32" fill="none" xmlns="http://www.w3.org/2000/svg">
<g clip-path="url(#clip0_90:536)">
<path d="M22.137 15.8L18.829 7.45333L16.0397 12.3333L13.2504 7.45333L9.94236 15.8027H8.98636V17.0573H13.9677V15.8027H13.2304L13.9477 13.7293L16.0397 17.156L18.1317 13.7293L18.849 15.8027H18.1117V17.0573H23.113V15.8027L22.137 15.8ZM29.2504 13.2507C29.2512 11.5103 28.9091 9.78686 28.2435 8.17882C27.5779 6.57078 26.6019 5.10969 25.3713 3.87908C24.1407 2.64846 22.6796 1.67246 21.0715 1.00686C19.4635 0.341266 17.74 -0.000874586 15.9997 1.67891e-06C8.68769 1.67891e-06 2.74902 5.93733 2.74902 13.2507C2.74902 16.9173 4.24369 20.224 6.63436 22.6147C6.78406 22.7657 6.9753 22.8688 7.18375 22.9108C7.3922 22.9529 7.60844 22.932 7.80498 22.8508C8.00152 22.7696 8.16947 22.6318 8.28748 22.4549C8.40549 22.278 8.46821 22.07 8.46769 21.8573C8.46814 21.5667 8.35358 21.2878 8.14902 21.0813C6.07807 19.002 4.91748 16.1854 4.92236 13.2507C4.92236 7.13333 9.88236 2.152 15.9997 2.152C22.117 2.152 27.0984 7.13333 27.0984 13.2507C27.1016 14.7088 26.8163 16.1532 26.2589 17.5006C25.7014 18.848 24.8829 20.0717 23.8504 21.1013L14.485 30.4653L15.9997 32L25.385 22.6147C26.6147 21.3857 27.5893 19.9257 28.2527 18.3186C28.916 16.7116 29.2551 14.9892 29.2504 13.2507Z" fill="#F24E1E"/>
</g>
<defs>
<clipPath id="clip0_90:536">
<rect width="32" height="32" fill="white"/>
</clipPath>
</defs>
</svg>
