<svg width="26" height="26" viewBox="0 0 26 26" fill="none" xmlns="http://www.w3.org/2000/svg">
<path fill-rule="evenodd" clip-rule="evenodd" d="M26 13C26 20.1797 20.1797 26 13 26C5.8203 26 0 20.1797 0 13C0 5.8203 5.8203 0 13 0C20.1797 0 26 5.8203 26 13ZM13.4658 9.59717C12.2013 10.1231 9.67424 11.2116 5.88447 12.8628C5.26907 13.1075 4.9467 13.3469 4.91735 13.581C4.86776 13.9766 5.36319 14.1324 6.03785 14.3446C6.12962 14.3734 6.22471 14.4033 6.32219 14.435C6.98594 14.6508 7.87882 14.9032 8.34298 14.9132C8.76403 14.9223 9.23396 14.7487 9.75278 14.3925C13.2937 12.0023 15.1215 10.7941 15.2363 10.7681C15.3172 10.7497 15.4294 10.7266 15.5054 10.7942C15.5814 10.8617 15.574 10.9897 15.5659 11.024C15.5168 11.2332 13.572 13.0413 12.5656 13.9769C12.2519 14.2686 12.0293 14.4755 11.9838 14.5228C11.8819 14.6286 11.7781 14.7288 11.6782 14.825C11.0616 15.4194 10.5992 15.8652 11.7038 16.5932C12.2347 16.943 12.6595 17.2323 13.0833 17.5209C13.5461 17.8361 14.0077 18.1504 14.605 18.542C14.7572 18.6417 14.9025 18.7453 15.0441 18.8462C15.5827 19.2302 16.0666 19.5752 16.6644 19.5202C17.0118 19.4882 17.3706 19.1616 17.5528 18.1874C17.9835 15.8851 18.83 10.8967 19.0257 8.84105C19.0428 8.66096 19.0212 8.43047 19.0039 8.32929C18.9866 8.22811 18.9504 8.08395 18.8189 7.97723C18.6631 7.85085 18.4227 7.8242 18.3151 7.82609C17.8262 7.8347 17.076 8.09555 13.4658 9.59717Z" fill="#443E3E"/>
</svg>
