<svg width="26" height="26" viewBox="0 0 26 26" fill="none" xmlns="http://www.w3.org/2000/svg">
<path fill-rule="evenodd" clip-rule="evenodd" d="M1.82433 1.82433C0 3.64867 0 6.5858 0 12.4583V13.5417C0 19.4133 0 22.3513 1.82433 24.1757C3.64867 26 6.5858 26 12.4583 26H13.5417C19.4133 26 22.3513 26 24.1757 24.1757C26 22.3513 26 19.4142 26 13.5417V12.4583C26 6.58667 26 3.64867 24.1757 1.82433C22.3513 0 19.4142 0 13.5417 0H12.4583C6.58667 0 3.64867 0 1.82433 1.82433ZM5.14626 8.125H7.04166C7.52612 8.125 7.70812 8.33733 7.89012 8.86253C8.81746 11.5631 10.3809 13.9239 11.0231 13.9239C11.2649 13.9239 11.375 13.8129 11.375 13.2002V10.4087C11.3316 9.614 11.0539 9.27025 10.8483 9.01565C10.7214 8.85847 10.6219 8.73527 10.6219 8.56093C10.6219 8.3486 10.803 8.125 11.1037 8.125H14.0833C14.4855 8.125 14.625 8.33993 14.625 8.8218V12.5779C14.625 12.9792 14.7992 13.1205 14.9197 13.1205C15.1606 13.1205 15.3617 12.9792 15.8037 12.5372C17.1695 11.011 18.1333 8.66147 18.1333 8.66147C18.2537 8.3798 18.4765 8.125 18.9583 8.125H20.8537C21.4275 8.125 21.5488 8.42053 21.4275 8.8218C21.1865 9.9268 18.8769 13.1803 18.8769 13.1803C18.6758 13.5018 18.5952 13.6621 18.8769 14.0235C18.9763 14.1628 19.1883 14.3706 19.4308 14.6083C19.6788 14.8514 19.9586 15.1256 20.1821 15.3894C20.9967 16.3055 21.6103 17.0785 21.7811 17.6107C21.9379 18.1454 21.6667 18.4167 21.125 18.4167H19.2287C18.7211 18.4167 18.4656 18.1324 17.9133 17.5175C17.6792 17.2569 17.3917 16.937 17.0092 16.5542C15.8834 15.47 15.4024 15.3296 15.1207 15.3296C14.7394 15.3296 14.625 15.4379 14.625 15.9796V17.68C14.625 18.1454 14.4759 18.4167 13.2704 18.4167C11.2623 18.4167 9.05492 17.1973 7.48886 14.9474C5.13846 11.6541 4.49626 9.16327 4.49626 8.66147C4.49626 8.3798 4.60459 8.125 5.14626 8.125Z" fill="#443E3E"/>
</svg>
